<?xml version="1.0" encoding="utf-8" standalone="no"?>
<!DOCTYPE svg PUBLIC "-//W3C//DTD SVG 1.1//EN"
  "http://www.w3.org/Graphics/SVG/1.1/DTD/svg11.dtd">
<!-- Created with matplotlib (https://matplotlib.org/) -->
<svg height="171pt" version="1.1" viewBox="0 0 288 171" width="288pt" xmlns="http://www.w3.org/2000/svg" xmlns:xlink="http://www.w3.org/1999/xlink">
 <metadata>
  <rdf:RDF xmlns:cc="http://creativecommons.org/ns#" xmlns:dc="http://purl.org/dc/elements/1.1/" xmlns:rdf="http://www.w3.org/1999/02/22-rdf-syntax-ns#">
   <cc:Work>
    <dc:type rdf:resource="http://purl.org/dc/dcmitype/StillImage"/>
    <dc:date>2022-05-05T15:54:37.679168</dc:date>
    <dc:format>image/svg+xml</dc:format>
    <dc:creator>
     <cc:Agent>
      <dc:title>Matplotlib v3.3.4, https://matplotlib.org/</dc:title>
     </cc:Agent>
    </dc:creator>
   </cc:Work>
  </rdf:RDF>
 </metadata>
 <defs>
  <style type="text/css">*{stroke-linecap:butt;stroke-linejoin:round;}</style>
 </defs>
 <g id="figure_1">
  <g id="patch_1">
   <path d="M 0 171 
L 288 171 
L 288 0 
L 0 0 
z
" style="fill:#ffffff;"/>
  </g>
  <g id="axes_1">
   <g id="patch_2">
    <path d="M 30.89 142 
L 277.695 142 
L 277.695 8.76 
L 30.89 8.76 
z
" style="fill:#ffffff;"/>
   </g>
   <g id="matplotlib.axis_1">
    <g id="xtick_1">
     <g id="line2d_1">
      <path clip-path="url(#pb567b0a0bd)" d="M 30.89 142 
L 30.89 8.76 
" style="fill:none;stroke:#b0b0b0;stroke-linecap:square;stroke-opacity:0.25;stroke-width:0.8;"/>
     </g>
     <g id="line2d_2">
      <defs>
       <path d="M 0 0 
L 0 3.5 
" id="m98fb3f2982" style="stroke:#000000;stroke-width:0.8;"/>
      </defs>
      <g>
       <use style="stroke:#000000;stroke-width:0.8;" x="30.89" xlink:href="#m98fb3f2982" y="142"/>
      </g>
     </g>
     <g id="text_1">
      <!-- −90 -->
      <g transform="translate(24.558594 153.559062)scale(0.06 -0.06)">
       <defs>
        <path d="M 10.59375 35.5 
L 73.1875 35.5 
L 73.1875 27.203125 
L 10.59375 27.203125 
z
" id="DejaVuSans-8722"/>
        <path d="M 10.984375 1.515625 
L 10.984375 10.5 
Q 14.703125 8.734375 18.5 7.8125 
Q 22.3125 6.890625 25.984375 6.890625 
Q 35.75 6.890625 40.890625 13.453125 
Q 46.046875 20.015625 46.78125 33.40625 
Q 43.953125 29.203125 39.59375 26.953125 
Q 35.25 24.703125 29.984375 24.703125 
Q 19.046875 24.703125 12.671875 31.3125 
Q 6.296875 37.9375 6.296875 49.421875 
Q 6.296875 60.640625 12.9375 67.421875 
Q 19.578125 74.21875 30.609375 74.21875 
Q 43.265625 74.21875 49.921875 64.515625 
Q 56.59375 54.828125 56.59375 36.375 
Q 56.59375 19.140625 48.40625 8.859375 
Q 40.234375 -1.421875 26.421875 -1.421875 
Q 22.703125 -1.421875 18.890625 -0.6875 
Q 15.09375 0.046875 10.984375 1.515625 
z
M 30.609375 32.421875 
Q 37.25 32.421875 41.125 36.953125 
Q 45.015625 41.5 45.015625 49.421875 
Q 45.015625 57.28125 41.125 61.84375 
Q 37.25 66.40625 30.609375 66.40625 
Q 23.96875 66.40625 20.09375 61.84375 
Q 16.21875 57.28125 16.21875 49.421875 
Q 16.21875 41.5 20.09375 36.953125 
Q 23.96875 32.421875 30.609375 32.421875 
z
" id="DejaVuSans-57"/>
        <path d="M 31.78125 66.40625 
Q 24.171875 66.40625 20.328125 58.90625 
Q 16.5 51.421875 16.5 36.375 
Q 16.5 21.390625 20.328125 13.890625 
Q 24.171875 6.390625 31.78125 6.390625 
Q 39.453125 6.390625 43.28125 13.890625 
Q 47.125 21.390625 47.125 36.375 
Q 47.125 51.421875 43.28125 58.90625 
Q 39.453125 66.40625 31.78125 66.40625 
z
M 31.78125 74.21875 
Q 44.046875 74.21875 50.515625 64.515625 
Q 56.984375 54.828125 56.984375 36.375 
Q 56.984375 17.96875 50.515625 8.265625 
Q 44.046875 -1.421875 31.78125 -1.421875 
Q 19.53125 -1.421875 13.0625 8.265625 
Q 6.59375 17.96875 6.59375 36.375 
Q 6.59375 54.828125 13.0625 64.515625 
Q 19.53125 74.21875 31.78125 74.21875 
z
" id="DejaVuSans-48"/>
       </defs>
       <use xlink:href="#DejaVuSans-8722"/>
       <use x="83.789062" xlink:href="#DejaVuSans-57"/>
       <use x="147.412109" xlink:href="#DejaVuSans-48"/>
      </g>
     </g>
    </g>
    <g id="xtick_2">
     <g id="line2d_3">
      <path clip-path="url(#pb567b0a0bd)" d="M 72.024167 142 
L 72.024167 8.76 
" style="fill:none;stroke:#b0b0b0;stroke-linecap:square;stroke-opacity:0.25;stroke-width:0.8;"/>
     </g>
     <g id="line2d_4">
      <g>
       <use style="stroke:#000000;stroke-width:0.8;" x="72.024167" xlink:href="#m98fb3f2982" y="142"/>
      </g>
     </g>
     <g id="text_2">
      <!-- −60 -->
      <g transform="translate(65.69276 153.559062)scale(0.06 -0.06)">
       <defs>
        <path d="M 33.015625 40.375 
Q 26.375 40.375 22.484375 35.828125 
Q 18.609375 31.296875 18.609375 23.390625 
Q 18.609375 15.53125 22.484375 10.953125 
Q 26.375 6.390625 33.015625 6.390625 
Q 39.65625 6.390625 43.53125 10.953125 
Q 47.40625 15.53125 47.40625 23.390625 
Q 47.40625 31.296875 43.53125 35.828125 
Q 39.65625 40.375 33.015625 40.375 
z
M 52.59375 71.296875 
L 52.59375 62.3125 
Q 48.875 64.0625 45.09375 64.984375 
Q 41.3125 65.921875 37.59375 65.921875 
Q 27.828125 65.921875 22.671875 59.328125 
Q 17.53125 52.734375 16.796875 39.40625 
Q 19.671875 43.65625 24.015625 45.921875 
Q 28.375 48.1875 33.59375 48.1875 
Q 44.578125 48.1875 50.953125 41.515625 
Q 57.328125 34.859375 57.328125 23.390625 
Q 57.328125 12.15625 50.6875 5.359375 
Q 44.046875 -1.421875 33.015625 -1.421875 
Q 20.359375 -1.421875 13.671875 8.265625 
Q 6.984375 17.96875 6.984375 36.375 
Q 6.984375 53.65625 15.1875 63.9375 
Q 23.390625 74.21875 37.203125 74.21875 
Q 40.921875 74.21875 44.703125 73.484375 
Q 48.484375 72.75 52.59375 71.296875 
z
" id="DejaVuSans-54"/>
       </defs>
       <use xlink:href="#DejaVuSans-8722"/>
       <use x="83.789062" xlink:href="#DejaVuSans-54"/>
       <use x="147.412109" xlink:href="#DejaVuSans-48"/>
      </g>
     </g>
    </g>
    <g id="xtick_3">
     <g id="line2d_5">
      <path clip-path="url(#pb567b0a0bd)" d="M 113.158333 142 
L 113.158333 8.76 
" style="fill:none;stroke:#b0b0b0;stroke-linecap:square;stroke-opacity:0.25;stroke-width:0.8;"/>
     </g>
     <g id="line2d_6">
      <g>
       <use style="stroke:#000000;stroke-width:0.8;" x="113.158333" xlink:href="#m98fb3f2982" y="142"/>
      </g>
     </g>
     <g id="text_3">
      <!-- −30 -->
      <g transform="translate(106.826927 153.559062)scale(0.06 -0.06)">
       <defs>
        <path d="M 40.578125 39.3125 
Q 47.65625 37.796875 51.625 33 
Q 55.609375 28.21875 55.609375 21.1875 
Q 55.609375 10.40625 48.1875 4.484375 
Q 40.765625 -1.421875 27.09375 -1.421875 
Q 22.515625 -1.421875 17.65625 -0.515625 
Q 12.796875 0.390625 7.625 2.203125 
L 7.625 11.71875 
Q 11.71875 9.328125 16.59375 8.109375 
Q 21.484375 6.890625 26.8125 6.890625 
Q 36.078125 6.890625 40.9375 10.546875 
Q 45.796875 14.203125 45.796875 21.1875 
Q 45.796875 27.640625 41.28125 31.265625 
Q 36.765625 34.90625 28.71875 34.90625 
L 20.21875 34.90625 
L 20.21875 43.015625 
L 29.109375 43.015625 
Q 36.375 43.015625 40.234375 45.921875 
Q 44.09375 48.828125 44.09375 54.296875 
Q 44.09375 59.90625 40.109375 62.90625 
Q 36.140625 65.921875 28.71875 65.921875 
Q 24.65625 65.921875 20.015625 65.03125 
Q 15.375 64.15625 9.8125 62.3125 
L 9.8125 71.09375 
Q 15.4375 72.65625 20.34375 73.4375 
Q 25.25 74.21875 29.59375 74.21875 
Q 40.828125 74.21875 47.359375 69.109375 
Q 53.90625 64.015625 53.90625 55.328125 
Q 53.90625 49.265625 50.4375 45.09375 
Q 46.96875 40.921875 40.578125 39.3125 
z
" id="DejaVuSans-51"/>
       </defs>
       <use xlink:href="#DejaVuSans-8722"/>
       <use x="83.789062" xlink:href="#DejaVuSans-51"/>
       <use x="147.412109" xlink:href="#DejaVuSans-48"/>
      </g>
     </g>
    </g>
    <g id="xtick_4">
     <g id="line2d_7">
      <path clip-path="url(#pb567b0a0bd)" d="M 154.2925 142 
L 154.2925 8.76 
" style="fill:none;stroke:#b0b0b0;stroke-linecap:square;stroke-opacity:0.25;stroke-width:0.8;"/>
     </g>
     <g id="line2d_8">
      <g>
       <use style="stroke:#000000;stroke-width:0.8;" x="154.2925" xlink:href="#m98fb3f2982" y="142"/>
      </g>
     </g>
     <g id="text_4">
      <!-- 0 -->
      <g transform="translate(152.38375 153.559062)scale(0.06 -0.06)">
       <use xlink:href="#DejaVuSans-48"/>
      </g>
     </g>
    </g>
    <g id="xtick_5">
     <g id="line2d_9">
      <path clip-path="url(#pb567b0a0bd)" d="M 195.426667 142 
L 195.426667 8.76 
" style="fill:none;stroke:#b0b0b0;stroke-linecap:square;stroke-opacity:0.25;stroke-width:0.8;"/>
     </g>
     <g id="line2d_10">
      <g>
       <use style="stroke:#000000;stroke-width:0.8;" x="195.426667" xlink:href="#m98fb3f2982" y="142"/>
      </g>
     </g>
     <g id="text_5">
      <!-- 30 -->
      <g transform="translate(191.609167 153.559062)scale(0.06 -0.06)">
       <use xlink:href="#DejaVuSans-51"/>
       <use x="63.623047" xlink:href="#DejaVuSans-48"/>
      </g>
     </g>
    </g>
    <g id="xtick_6">
     <g id="line2d_11">
      <path clip-path="url(#pb567b0a0bd)" d="M 236.560833 142 
L 236.560833 8.76 
" style="fill:none;stroke:#b0b0b0;stroke-linecap:square;stroke-opacity:0.25;stroke-width:0.8;"/>
     </g>
     <g id="line2d_12">
      <g>
       <use style="stroke:#000000;stroke-width:0.8;" x="236.560833" xlink:href="#m98fb3f2982" y="142"/>
      </g>
     </g>
     <g id="text_6">
      <!-- 60 -->
      <g transform="translate(232.743333 153.559062)scale(0.06 -0.06)">
       <use xlink:href="#DejaVuSans-54"/>
       <use x="63.623047" xlink:href="#DejaVuSans-48"/>
      </g>
     </g>
    </g>
    <g id="xtick_7">
     <g id="line2d_13">
      <path clip-path="url(#pb567b0a0bd)" d="M 277.695 142 
L 277.695 8.76 
" style="fill:none;stroke:#b0b0b0;stroke-linecap:square;stroke-opacity:0.25;stroke-width:0.8;"/>
     </g>
     <g id="line2d_14">
      <g>
       <use style="stroke:#000000;stroke-width:0.8;" x="277.695" xlink:href="#m98fb3f2982" y="142"/>
      </g>
     </g>
     <g id="text_7">
      <!-- 90 -->
      <g transform="translate(273.8775 153.559062)scale(0.06 -0.06)">
       <use xlink:href="#DejaVuSans-57"/>
       <use x="63.623047" xlink:href="#DejaVuSans-48"/>
      </g>
     </g>
    </g>
    <g id="text_8">
     <!-- Latitude (deg) -->
     <g transform="translate(132.995781 163.365938)scale(0.06 -0.06)">
      <defs>
       <path d="M 9.8125 72.90625 
L 19.671875 72.90625 
L 19.671875 8.296875 
L 55.171875 8.296875 
L 55.171875 0 
L 9.8125 0 
z
" id="DejaVuSans-76"/>
       <path d="M 34.28125 27.484375 
Q 23.390625 27.484375 19.1875 25 
Q 14.984375 22.515625 14.984375 16.5 
Q 14.984375 11.71875 18.140625 8.90625 
Q 21.296875 6.109375 26.703125 6.109375 
Q 34.1875 6.109375 38.703125 11.40625 
Q 43.21875 16.703125 43.21875 25.484375 
L 43.21875 27.484375 
z
M 52.203125 31.203125 
L 52.203125 0 
L 43.21875 0 
L 43.21875 8.296875 
Q 40.140625 3.328125 35.546875 0.953125 
Q 30.953125 -1.421875 24.3125 -1.421875 
Q 15.921875 -1.421875 10.953125 3.296875 
Q 6 8.015625 6 15.921875 
Q 6 25.140625 12.171875 29.828125 
Q 18.359375 34.515625 30.609375 34.515625 
L 43.21875 34.515625 
L 43.21875 35.40625 
Q 43.21875 41.609375 39.140625 45 
Q 35.0625 48.390625 27.6875 48.390625 
Q 23 48.390625 18.546875 47.265625 
Q 14.109375 46.140625 10.015625 43.890625 
L 10.015625 52.203125 
Q 14.9375 54.109375 19.578125 55.046875 
Q 24.21875 56 28.609375 56 
Q 40.484375 56 46.34375 49.84375 
Q 52.203125 43.703125 52.203125 31.203125 
z
" id="DejaVuSans-97"/>
       <path d="M 18.3125 70.21875 
L 18.3125 54.6875 
L 36.8125 54.6875 
L 36.8125 47.703125 
L 18.3125 47.703125 
L 18.3125 18.015625 
Q 18.3125 11.328125 20.140625 9.421875 
Q 21.96875 7.515625 27.59375 7.515625 
L 36.8125 7.515625 
L 36.8125 0 
L 27.59375 0 
Q 17.1875 0 13.234375 3.875 
Q 9.28125 7.765625 9.28125 18.015625 
L 9.28125 47.703125 
L 2.6875 47.703125 
L 2.6875 54.6875 
L 9.28125 54.6875 
L 9.28125 70.21875 
z
" id="DejaVuSans-116"/>
       <path d="M 9.421875 54.6875 
L 18.40625 54.6875 
L 18.40625 0 
L 9.421875 0 
z
M 9.421875 75.984375 
L 18.40625 75.984375 
L 18.40625 64.59375 
L 9.421875 64.59375 
z
" id="DejaVuSans-105"/>
       <path d="M 8.5 21.578125 
L 8.5 54.6875 
L 17.484375 54.6875 
L 17.484375 21.921875 
Q 17.484375 14.15625 20.5 10.265625 
Q 23.53125 6.390625 29.59375 6.390625 
Q 36.859375 6.390625 41.078125 11.03125 
Q 45.3125 15.671875 45.3125 23.6875 
L 45.3125 54.6875 
L 54.296875 54.6875 
L 54.296875 0 
L 45.3125 0 
L 45.3125 8.40625 
Q 42.046875 3.421875 37.71875 1 
Q 33.40625 -1.421875 27.6875 -1.421875 
Q 18.265625 -1.421875 13.375 4.4375 
Q 8.5 10.296875 8.5 21.578125 
z
M 31.109375 56 
z
" id="DejaVuSans-117"/>
       <path d="M 45.40625 46.390625 
L 45.40625 75.984375 
L 54.390625 75.984375 
L 54.390625 0 
L 45.40625 0 
L 45.40625 8.203125 
Q 42.578125 3.328125 38.25 0.953125 
Q 33.9375 -1.421875 27.875 -1.421875 
Q 17.96875 -1.421875 11.734375 6.484375 
Q 5.515625 14.40625 5.515625 27.296875 
Q 5.515625 40.1875 11.734375 48.09375 
Q 17.96875 56 27.875 56 
Q 33.9375 56 38.25 53.625 
Q 42.578125 51.265625 45.40625 46.390625 
z
M 14.796875 27.296875 
Q 14.796875 17.390625 18.875 11.75 
Q 22.953125 6.109375 30.078125 6.109375 
Q 37.203125 6.109375 41.296875 11.75 
Q 45.40625 17.390625 45.40625 27.296875 
Q 45.40625 37.203125 41.296875 42.84375 
Q 37.203125 48.484375 30.078125 48.484375 
Q 22.953125 48.484375 18.875 42.84375 
Q 14.796875 37.203125 14.796875 27.296875 
z
" id="DejaVuSans-100"/>
       <path d="M 56.203125 29.59375 
L 56.203125 25.203125 
L 14.890625 25.203125 
Q 15.484375 15.921875 20.484375 11.0625 
Q 25.484375 6.203125 34.421875 6.203125 
Q 39.59375 6.203125 44.453125 7.46875 
Q 49.3125 8.734375 54.109375 11.28125 
L 54.109375 2.78125 
Q 49.265625 0.734375 44.1875 -0.34375 
Q 39.109375 -1.421875 33.890625 -1.421875 
Q 20.796875 -1.421875 13.15625 6.1875 
Q 5.515625 13.8125 5.515625 26.8125 
Q 5.515625 40.234375 12.765625 48.109375 
Q 20.015625 56 32.328125 56 
Q 43.359375 56 49.78125 48.890625 
Q 56.203125 41.796875 56.203125 29.59375 
z
M 47.21875 32.234375 
Q 47.125 39.59375 43.09375 43.984375 
Q 39.0625 48.390625 32.421875 48.390625 
Q 24.90625 48.390625 20.390625 44.140625 
Q 15.875 39.890625 15.1875 32.171875 
z
" id="DejaVuSans-101"/>
       <path id="DejaVuSans-32"/>
       <path d="M 31 75.875 
Q 24.46875 64.65625 21.28125 53.65625 
Q 18.109375 42.671875 18.109375 31.390625 
Q 18.109375 20.125 21.3125 9.0625 
Q 24.515625 -2 31 -13.1875 
L 23.1875 -13.1875 
Q 15.875 -1.703125 12.234375 9.375 
Q 8.59375 20.453125 8.59375 31.390625 
Q 8.59375 42.28125 12.203125 53.3125 
Q 15.828125 64.359375 23.1875 75.875 
z
" id="DejaVuSans-40"/>
       <path d="M 45.40625 27.984375 
Q 45.40625 37.75 41.375 43.109375 
Q 37.359375 48.484375 30.078125 48.484375 
Q 22.859375 48.484375 18.828125 43.109375 
Q 14.796875 37.75 14.796875 27.984375 
Q 14.796875 18.265625 18.828125 12.890625 
Q 22.859375 7.515625 30.078125 7.515625 
Q 37.359375 7.515625 41.375 12.890625 
Q 45.40625 18.265625 45.40625 27.984375 
z
M 54.390625 6.78125 
Q 54.390625 -7.171875 48.1875 -13.984375 
Q 42 -20.796875 29.203125 -20.796875 
Q 24.46875 -20.796875 20.265625 -20.09375 
Q 16.0625 -19.390625 12.109375 -17.921875 
L 12.109375 -9.1875 
Q 16.0625 -11.328125 19.921875 -12.34375 
Q 23.78125 -13.375 27.78125 -13.375 
Q 36.625 -13.375 41.015625 -8.765625 
Q 45.40625 -4.15625 45.40625 5.171875 
L 45.40625 9.625 
Q 42.625 4.78125 38.28125 2.390625 
Q 33.9375 0 27.875 0 
Q 17.828125 0 11.671875 7.65625 
Q 5.515625 15.328125 5.515625 27.984375 
Q 5.515625 40.671875 11.671875 48.328125 
Q 17.828125 56 27.875 56 
Q 33.9375 56 38.28125 53.609375 
Q 42.625 51.21875 45.40625 46.390625 
L 45.40625 54.6875 
L 54.390625 54.6875 
z
" id="DejaVuSans-103"/>
       <path d="M 8.015625 75.875 
L 15.828125 75.875 
Q 23.140625 64.359375 26.78125 53.3125 
Q 30.421875 42.28125 30.421875 31.390625 
Q 30.421875 20.453125 26.78125 9.375 
Q 23.140625 -1.703125 15.828125 -13.1875 
L 8.015625 -13.1875 
Q 14.5 -2 17.703125 9.0625 
Q 20.90625 20.125 20.90625 31.390625 
Q 20.90625 42.671875 17.703125 53.65625 
Q 14.5 64.65625 8.015625 75.875 
z
" id="DejaVuSans-41"/>
      </defs>
      <use xlink:href="#DejaVuSans-76"/>
      <use x="55.712891" xlink:href="#DejaVuSans-97"/>
      <use x="116.992188" xlink:href="#DejaVuSans-116"/>
      <use x="156.201172" xlink:href="#DejaVuSans-105"/>
      <use x="183.984375" xlink:href="#DejaVuSans-116"/>
      <use x="223.193359" xlink:href="#DejaVuSans-117"/>
      <use x="286.572266" xlink:href="#DejaVuSans-100"/>
      <use x="350.048828" xlink:href="#DejaVuSans-101"/>
      <use x="411.572266" xlink:href="#DejaVuSans-32"/>
      <use x="443.359375" xlink:href="#DejaVuSans-40"/>
      <use x="482.373047" xlink:href="#DejaVuSans-100"/>
      <use x="545.849609" xlink:href="#DejaVuSans-101"/>
      <use x="607.373047" xlink:href="#DejaVuSans-103"/>
      <use x="670.849609" xlink:href="#DejaVuSans-41"/>
     </g>
    </g>
   </g>
   <g id="matplotlib.axis_2">
    <g id="ytick_1">
     <g id="line2d_15">
      <path clip-path="url(#pb567b0a0bd)" d="M 30.89 142 
L 277.695 142 
" style="fill:none;stroke:#b0b0b0;stroke-linecap:square;stroke-opacity:0.25;stroke-width:0.8;"/>
     </g>
     <g id="line2d_16">
      <defs>
       <path d="M 0 0 
L -3.5 0 
" id="mcb03ebfccc" style="stroke:#000000;stroke-width:0.8;"/>
      </defs>
      <g>
       <use style="stroke:#000000;stroke-width:0.8;" x="30.89" xlink:href="#mcb03ebfccc" y="142"/>
      </g>
     </g>
     <g id="text_9">
      <!-- 0 -->
      <g transform="translate(20.0725 144.279531)scale(0.06 -0.06)">
       <use xlink:href="#DejaVuSans-48"/>
      </g>
     </g>
    </g>
    <g id="ytick_2">
     <g id="line2d_17">
      <path clip-path="url(#pb567b0a0bd)" d="M 30.89 119.793333 
L 277.695 119.793333 
" style="fill:none;stroke:#b0b0b0;stroke-linecap:square;stroke-opacity:0.25;stroke-width:0.8;"/>
     </g>
     <g id="line2d_18">
      <g>
       <use style="stroke:#000000;stroke-width:0.8;" x="30.89" xlink:href="#mcb03ebfccc" y="119.793333"/>
      </g>
     </g>
     <g id="text_10">
      <!-- 2 -->
      <g transform="translate(20.0725 122.072865)scale(0.06 -0.06)">
       <defs>
        <path d="M 19.1875 8.296875 
L 53.609375 8.296875 
L 53.609375 0 
L 7.328125 0 
L 7.328125 8.296875 
Q 12.9375 14.109375 22.625 23.890625 
Q 32.328125 33.6875 34.8125 36.53125 
Q 39.546875 41.84375 41.421875 45.53125 
Q 43.3125 49.21875 43.3125 52.78125 
Q 43.3125 58.59375 39.234375 62.25 
Q 35.15625 65.921875 28.609375 65.921875 
Q 23.96875 65.921875 18.8125 64.3125 
Q 13.671875 62.703125 7.8125 59.421875 
L 7.8125 69.390625 
Q 13.765625 71.78125 18.9375 73 
Q 24.125 74.21875 28.421875 74.21875 
Q 39.75 74.21875 46.484375 68.546875 
Q 53.21875 62.890625 53.21875 53.421875 
Q 53.21875 48.921875 51.53125 44.890625 
Q 49.859375 40.875 45.40625 35.40625 
Q 44.1875 33.984375 37.640625 27.21875 
Q 31.109375 20.453125 19.1875 8.296875 
z
" id="DejaVuSans-50"/>
       </defs>
       <use xlink:href="#DejaVuSans-50"/>
      </g>
     </g>
    </g>
    <g id="ytick_3">
     <g id="line2d_19">
      <path clip-path="url(#pb567b0a0bd)" d="M 30.89 97.586667 
L 277.695 97.586667 
" style="fill:none;stroke:#b0b0b0;stroke-linecap:square;stroke-opacity:0.25;stroke-width:0.8;"/>
     </g>
     <g id="line2d_20">
      <g>
       <use style="stroke:#000000;stroke-width:0.8;" x="30.89" xlink:href="#mcb03ebfccc" y="97.586667"/>
      </g>
     </g>
     <g id="text_11">
      <!-- 4 -->
      <g transform="translate(20.0725 99.866198)scale(0.06 -0.06)">
       <defs>
        <path d="M 37.796875 64.3125 
L 12.890625 25.390625 
L 37.796875 25.390625 
z
M 35.203125 72.90625 
L 47.609375 72.90625 
L 47.609375 25.390625 
L 58.015625 25.390625 
L 58.015625 17.1875 
L 47.609375 17.1875 
L 47.609375 0 
L 37.796875 0 
L 37.796875 17.1875 
L 4.890625 17.1875 
L 4.890625 26.703125 
z
" id="DejaVuSans-52"/>
       </defs>
       <use xlink:href="#DejaVuSans-52"/>
      </g>
     </g>
    </g>
    <g id="ytick_4">
     <g id="line2d_21">
      <path clip-path="url(#pb567b0a0bd)" d="M 30.89 75.38 
L 277.695 75.38 
" style="fill:none;stroke:#b0b0b0;stroke-linecap:square;stroke-opacity:0.25;stroke-width:0.8;"/>
     </g>
     <g id="line2d_22">
      <g>
       <use style="stroke:#000000;stroke-width:0.8;" x="30.89" xlink:href="#mcb03ebfccc" y="75.38"/>
      </g>
     </g>
     <g id="text_12">
      <!-- 6 -->
      <g transform="translate(20.0725 77.659531)scale(0.06 -0.06)">
       <use xlink:href="#DejaVuSans-54"/>
      </g>
     </g>
    </g>
    <g id="ytick_5">
     <g id="line2d_23">
      <path clip-path="url(#pb567b0a0bd)" d="M 30.89 53.173333 
L 277.695 53.173333 
" style="fill:none;stroke:#b0b0b0;stroke-linecap:square;stroke-opacity:0.25;stroke-width:0.8;"/>
     </g>
     <g id="line2d_24">
      <g>
       <use style="stroke:#000000;stroke-width:0.8;" x="30.89" xlink:href="#mcb03ebfccc" y="53.173333"/>
      </g>
     </g>
     <g id="text_13">
      <!-- 8 -->
      <g transform="translate(20.0725 55.452865)scale(0.06 -0.06)">
       <defs>
        <path d="M 31.78125 34.625 
Q 24.75 34.625 20.71875 30.859375 
Q 16.703125 27.09375 16.703125 20.515625 
Q 16.703125 13.921875 20.71875 10.15625 
Q 24.75 6.390625 31.78125 6.390625 
Q 38.8125 6.390625 42.859375 10.171875 
Q 46.921875 13.96875 46.921875 20.515625 
Q 46.921875 27.09375 42.890625 30.859375 
Q 38.875 34.625 31.78125 34.625 
z
M 21.921875 38.8125 
Q 15.578125 40.375 12.03125 44.71875 
Q 8.5 49.078125 8.5 55.328125 
Q 8.5 64.0625 14.71875 69.140625 
Q 20.953125 74.21875 31.78125 74.21875 
Q 42.671875 74.21875 48.875 69.140625 
Q 55.078125 64.0625 55.078125 55.328125 
Q 55.078125 49.078125 51.53125 44.71875 
Q 48 40.375 41.703125 38.8125 
Q 48.828125 37.15625 52.796875 32.3125 
Q 56.78125 27.484375 56.78125 20.515625 
Q 56.78125 9.90625 50.3125 4.234375 
Q 43.84375 -1.421875 31.78125 -1.421875 
Q 19.734375 -1.421875 13.25 4.234375 
Q 6.78125 9.90625 6.78125 20.515625 
Q 6.78125 27.484375 10.78125 32.3125 
Q 14.796875 37.15625 21.921875 38.8125 
z
M 18.3125 54.390625 
Q 18.3125 48.734375 21.84375 45.5625 
Q 25.390625 42.390625 31.78125 42.390625 
Q 38.140625 42.390625 41.71875 45.5625 
Q 45.3125 48.734375 45.3125 54.390625 
Q 45.3125 60.0625 41.71875 63.234375 
Q 38.140625 66.40625 31.78125 66.40625 
Q 25.390625 66.40625 21.84375 63.234375 
Q 18.3125 60.0625 18.3125 54.390625 
z
" id="DejaVuSans-56"/>
       </defs>
       <use xlink:href="#DejaVuSans-56"/>
      </g>
     </g>
    </g>
    <g id="ytick_6">
     <g id="line2d_25">
      <path clip-path="url(#pb567b0a0bd)" d="M 30.89 30.966667 
L 277.695 30.966667 
" style="fill:none;stroke:#b0b0b0;stroke-linecap:square;stroke-opacity:0.25;stroke-width:0.8;"/>
     </g>
     <g id="line2d_26">
      <g>
       <use style="stroke:#000000;stroke-width:0.8;" x="30.89" xlink:href="#mcb03ebfccc" y="30.966667"/>
      </g>
     </g>
     <g id="text_14">
      <!-- 10 -->
      <g transform="translate(16.255 33.246198)scale(0.06 -0.06)">
       <defs>
        <path d="M 12.40625 8.296875 
L 28.515625 8.296875 
L 28.515625 63.921875 
L 10.984375 60.40625 
L 10.984375 69.390625 
L 28.421875 72.90625 
L 38.28125 72.90625 
L 38.28125 8.296875 
L 54.390625 8.296875 
L 54.390625 0 
L 12.40625 0 
z
" id="DejaVuSans-49"/>
       </defs>
       <use xlink:href="#DejaVuSans-49"/>
       <use x="63.623047" xlink:href="#DejaVuSans-48"/>
      </g>
     </g>
    </g>
    <g id="ytick_7">
     <g id="line2d_27">
      <path clip-path="url(#pb567b0a0bd)" d="M 30.89 8.76 
L 277.695 8.76 
" style="fill:none;stroke:#b0b0b0;stroke-linecap:square;stroke-opacity:0.25;stroke-width:0.8;"/>
     </g>
     <g id="line2d_28">
      <g>
       <use style="stroke:#000000;stroke-width:0.8;" x="30.89" xlink:href="#mcb03ebfccc" y="8.76"/>
      </g>
     </g>
     <g id="text_15">
      <!-- 12 -->
      <g transform="translate(16.255 11.039531)scale(0.06 -0.06)">
       <use xlink:href="#DejaVuSans-49"/>
       <use x="63.623047" xlink:href="#DejaVuSans-50"/>
      </g>
     </g>
    </g>
    <g id="text_16">
     <!-- Weighting function (unitless) -->
     <g transform="translate(11.007188 118.589844)rotate(-90)scale(0.06 -0.06)">
      <defs>
       <path d="M 3.328125 72.90625 
L 13.28125 72.90625 
L 28.609375 11.28125 
L 43.890625 72.90625 
L 54.984375 72.90625 
L 70.3125 11.28125 
L 85.59375 72.90625 
L 95.609375 72.90625 
L 77.296875 0 
L 64.890625 0 
L 49.515625 63.28125 
L 33.984375 0 
L 21.578125 0 
z
" id="DejaVuSans-87"/>
       <path d="M 54.890625 33.015625 
L 54.890625 0 
L 45.90625 0 
L 45.90625 32.71875 
Q 45.90625 40.484375 42.875 44.328125 
Q 39.84375 48.1875 33.796875 48.1875 
Q 26.515625 48.1875 22.3125 43.546875 
Q 18.109375 38.921875 18.109375 30.90625 
L 18.109375 0 
L 9.078125 0 
L 9.078125 75.984375 
L 18.109375 75.984375 
L 18.109375 46.1875 
Q 21.34375 51.125 25.703125 53.5625 
Q 30.078125 56 35.796875 56 
Q 45.21875 56 50.046875 50.171875 
Q 54.890625 44.34375 54.890625 33.015625 
z
" id="DejaVuSans-104"/>
       <path d="M 54.890625 33.015625 
L 54.890625 0 
L 45.90625 0 
L 45.90625 32.71875 
Q 45.90625 40.484375 42.875 44.328125 
Q 39.84375 48.1875 33.796875 48.1875 
Q 26.515625 48.1875 22.3125 43.546875 
Q 18.109375 38.921875 18.109375 30.90625 
L 18.109375 0 
L 9.078125 0 
L 9.078125 54.6875 
L 18.109375 54.6875 
L 18.109375 46.1875 
Q 21.34375 51.125 25.703125 53.5625 
Q 30.078125 56 35.796875 56 
Q 45.21875 56 50.046875 50.171875 
Q 54.890625 44.34375 54.890625 33.015625 
z
" id="DejaVuSans-110"/>
       <path d="M 37.109375 75.984375 
L 37.109375 68.5 
L 28.515625 68.5 
Q 23.6875 68.5 21.796875 66.546875 
Q 19.921875 64.59375 19.921875 59.515625 
L 19.921875 54.6875 
L 34.71875 54.6875 
L 34.71875 47.703125 
L 19.921875 47.703125 
L 19.921875 0 
L 10.890625 0 
L 10.890625 47.703125 
L 2.296875 47.703125 
L 2.296875 54.6875 
L 10.890625 54.6875 
L 10.890625 58.5 
Q 10.890625 67.625 15.140625 71.796875 
Q 19.390625 75.984375 28.609375 75.984375 
z
" id="DejaVuSans-102"/>
       <path d="M 48.78125 52.59375 
L 48.78125 44.1875 
Q 44.96875 46.296875 41.140625 47.34375 
Q 37.3125 48.390625 33.40625 48.390625 
Q 24.65625 48.390625 19.8125 42.84375 
Q 14.984375 37.3125 14.984375 27.296875 
Q 14.984375 17.28125 19.8125 11.734375 
Q 24.65625 6.203125 33.40625 6.203125 
Q 37.3125 6.203125 41.140625 7.25 
Q 44.96875 8.296875 48.78125 10.40625 
L 48.78125 2.09375 
Q 45.015625 0.34375 40.984375 -0.53125 
Q 36.96875 -1.421875 32.421875 -1.421875 
Q 20.0625 -1.421875 12.78125 6.34375 
Q 5.515625 14.109375 5.515625 27.296875 
Q 5.515625 40.671875 12.859375 48.328125 
Q 20.21875 56 33.015625 56 
Q 37.15625 56 41.109375 55.140625 
Q 45.0625 54.296875 48.78125 52.59375 
z
" id="DejaVuSans-99"/>
       <path d="M 30.609375 48.390625 
Q 23.390625 48.390625 19.1875 42.75 
Q 14.984375 37.109375 14.984375 27.296875 
Q 14.984375 17.484375 19.15625 11.84375 
Q 23.34375 6.203125 30.609375 6.203125 
Q 37.796875 6.203125 41.984375 11.859375 
Q 46.1875 17.53125 46.1875 27.296875 
Q 46.1875 37.015625 41.984375 42.703125 
Q 37.796875 48.390625 30.609375 48.390625 
z
M 30.609375 56 
Q 42.328125 56 49.015625 48.375 
Q 55.71875 40.765625 55.71875 27.296875 
Q 55.71875 13.875 49.015625 6.21875 
Q 42.328125 -1.421875 30.609375 -1.421875 
Q 18.84375 -1.421875 12.171875 6.21875 
Q 5.515625 13.875 5.515625 27.296875 
Q 5.515625 40.765625 12.171875 48.375 
Q 18.84375 56 30.609375 56 
z
" id="DejaVuSans-111"/>
       <path d="M 9.421875 75.984375 
L 18.40625 75.984375 
L 18.40625 0 
L 9.421875 0 
z
" id="DejaVuSans-108"/>
       <path d="M 44.28125 53.078125 
L 44.28125 44.578125 
Q 40.484375 46.53125 36.375 47.5 
Q 32.28125 48.484375 27.875 48.484375 
Q 21.1875 48.484375 17.84375 46.4375 
Q 14.5 44.390625 14.5 40.28125 
Q 14.5 37.15625 16.890625 35.375 
Q 19.28125 33.59375 26.515625 31.984375 
L 29.59375 31.296875 
Q 39.15625 29.25 43.1875 25.515625 
Q 47.21875 21.78125 47.21875 15.09375 
Q 47.21875 7.46875 41.1875 3.015625 
Q 35.15625 -1.421875 24.609375 -1.421875 
Q 20.21875 -1.421875 15.453125 -0.5625 
Q 10.6875 0.296875 5.421875 2 
L 5.421875 11.28125 
Q 10.40625 8.6875 15.234375 7.390625 
Q 20.0625 6.109375 24.8125 6.109375 
Q 31.15625 6.109375 34.5625 8.28125 
Q 37.984375 10.453125 37.984375 14.40625 
Q 37.984375 18.0625 35.515625 20.015625 
Q 33.0625 21.96875 24.703125 23.78125 
L 21.578125 24.515625 
Q 13.234375 26.265625 9.515625 29.90625 
Q 5.8125 33.546875 5.8125 39.890625 
Q 5.8125 47.609375 11.28125 51.796875 
Q 16.75 56 26.8125 56 
Q 31.78125 56 36.171875 55.265625 
Q 40.578125 54.546875 44.28125 53.078125 
z
" id="DejaVuSans-115"/>
      </defs>
      <use xlink:href="#DejaVuSans-87"/>
      <use x="93.001953" xlink:href="#DejaVuSans-101"/>
      <use x="154.525391" xlink:href="#DejaVuSans-105"/>
      <use x="182.308594" xlink:href="#DejaVuSans-103"/>
      <use x="245.785156" xlink:href="#DejaVuSans-104"/>
      <use x="309.164062" xlink:href="#DejaVuSans-116"/>
      <use x="348.373047" xlink:href="#DejaVuSans-105"/>
      <use x="376.15625" xlink:href="#DejaVuSans-110"/>
      <use x="439.535156" xlink:href="#DejaVuSans-103"/>
      <use x="503.011719" xlink:href="#DejaVuSans-32"/>
      <use x="534.798828" xlink:href="#DejaVuSans-102"/>
      <use x="570.003906" xlink:href="#DejaVuSans-117"/>
      <use x="633.382812" xlink:href="#DejaVuSans-110"/>
      <use x="696.761719" xlink:href="#DejaVuSans-99"/>
      <use x="751.742188" xlink:href="#DejaVuSans-116"/>
      <use x="790.951172" xlink:href="#DejaVuSans-105"/>
      <use x="818.734375" xlink:href="#DejaVuSans-111"/>
      <use x="879.916016" xlink:href="#DejaVuSans-110"/>
      <use x="943.294922" xlink:href="#DejaVuSans-32"/>
      <use x="975.082031" xlink:href="#DejaVuSans-40"/>
      <use x="1014.095703" xlink:href="#DejaVuSans-117"/>
      <use x="1077.474609" xlink:href="#DejaVuSans-110"/>
      <use x="1140.853516" xlink:href="#DejaVuSans-105"/>
      <use x="1168.636719" xlink:href="#DejaVuSans-116"/>
      <use x="1207.845703" xlink:href="#DejaVuSans-108"/>
      <use x="1235.628906" xlink:href="#DejaVuSans-101"/>
      <use x="1297.152344" xlink:href="#DejaVuSans-115"/>
      <use x="1349.251953" xlink:href="#DejaVuSans-115"/>
      <use x="1401.351562" xlink:href="#DejaVuSans-41"/>
     </g>
    </g>
   </g>
   <g id="line2d_29">
    <path clip-path="url(#pb567b0a0bd)" d="M 277.009431 141.925608 
L 274.952722 141.754616 
L 273.581583 141.543653 
L 272.896014 141.469261 
L 269.468167 141.609163 
L 268.782597 141.602501 
L 268.097028 141.46593 
L 267.411458 138.173791 
L 266.725889 133.000748 
L 265.35475 131.154264 
L 264.669181 133.004079 
L 263.983611 134.162157 
L 263.298042 134.409761 
L 262.612472 135.191436 
L 260.555764 136.0042 
L 259.184625 136.326197 
L 258.499056 136.43723 
L 257.127917 136.342852 
L 256.442347 135.664438 
L 255.756778 135.813223 
L 255.071208 135.789906 
L 254.385639 136.128557 
L 253.0145 136.379493 
L 250.272222 136.601559 
L 249.586653 135.840981 
L 248.901083 136.30399 
L 248.215514 136.160757 
L 247.529944 136.346183 
L 246.844375 136.142992 
L 246.158806 136.225156 
L 245.473236 136.078592 
L 244.102097 136.317314 
L 243.416528 134.489705 
L 242.730958 129.94178 
L 242.045389 130.745661 
L 241.359819 132.588815 
L 240.67425 131.411861 
L 239.988681 129.887374 
L 239.303111 131.065437 
L 238.617542 131.975911 
L 237.931972 132.544401 
L 237.246403 132.382293 
L 236.560833 132.753144 
L 235.875264 132.679862 
L 235.189694 132.848633 
L 234.504125 133.166188 
L 233.818556 133.085134 
L 233.132986 133.294987 
L 232.447417 133.119554 
L 231.761847 132.364527 
L 231.076278 133.097347 
L 230.390708 133.297207 
L 229.705139 133.252794 
L 229.019569 130.736779 
L 228.334 132.302349 
L 227.648431 132.276811 
L 226.962861 132.735379 
L 226.277292 132.966328 
L 225.591722 132.444471 
L 224.906153 128.676 
L 224.220583 130.27599 
L 223.535014 131.185353 
L 222.849444 131.620604 
L 222.163875 131.668348 
L 219.421597 132.411161 
L 218.736028 132.128026 
L 218.050458 132.121364 
L 217.364889 132.246832 
L 216.679319 132.065848 
L 215.99375 132.197977 
L 215.308181 131.682783 
L 214.622611 132.182433 
L 213.251472 132.464457 
L 211.194764 132.682083 
L 210.509194 132.454464 
L 209.138056 132.552174 
L 208.452486 130.727896 
L 207.766917 131.00659 
L 207.081347 131.718313 
L 206.395778 131.80825 
L 205.710208 131.720534 
L 205.024639 131.762727 
L 204.339069 130.294866 
L 203.6535 131.316373 
L 202.967931 130.669048 
L 202.282361 129.20785 
L 201.596792 125.168457 
L 200.911222 126.989404 
L 200.225653 128.180791 
L 199.540083 128.993555 
L 198.168944 128.835888 
L 197.483375 128.621594 
L 196.797806 126.695165 
L 196.112236 126.360955 
L 195.426667 126.779551 
L 194.741097 127.491274 
L 194.055528 127.125975 
L 193.369958 122.903377 
L 192.684389 112.878177 
L 191.998819 113.612108 
L 191.31325 113.231263 
L 190.627681 102.616477 
L 189.942111 103.921118 
L 189.256542 103.888919 
L 188.570972 105.265732 
L 187.885403 104.820488 
L 187.199833 104.143185 
L 185.828694 106.05851 
L 185.143125 105.283497 
L 184.457556 106.218398 
L 183.771986 108.647807 
L 182.400847 109.005335 
L 181.715278 107.586329 
L 181.029708 106.512636 
L 180.344139 105.06032 
L 179.658569 107.105554 
L 178.973 107.09223 
L 178.287431 102.908494 
L 177.601861 105.765382 
L 176.230722 108.425741 
L 174.859583 109.95578 
L 174.174014 109.387289 
L 173.488444 110.466533 
L 172.802875 110.707476 
L 171.431736 110.208936 
L 170.746167 110.094572 
L 170.060597 111.12163 
L 169.375028 111.803375 
L 168.689458 111.149388 
L 168.003889 112.094282 
L 167.318319 112.551739 
L 166.63275 112.807116 
L 165.947181 112.406286 
L 165.261611 110.178957 
L 164.576042 107.464192 
L 163.890472 97.124768 
L 163.204903 82.428396 
L 162.519333 73.255932 
L 161.833764 74.996935 
L 161.148194 74.920322 
L 160.462625 75.294504 
L 159.777056 67.275677 
L 159.091486 64.273336 
L 158.405917 64.060152 
L 157.034778 50.735041 
L 156.349208 48.722007 
L 155.663639 51.608874 
L 154.978069 51.405683 
L 154.2925 26.029014 
L 153.606931 24.58336 
L 152.921361 51.405683 
L 152.235792 51.608874 
L 151.550222 48.722007 
L 150.864653 50.736152 
L 149.493514 64.060152 
L 148.807944 64.273336 
L 148.122375 67.275677 
L 147.436806 75.294504 
L 146.751236 74.920322 
L 146.065667 74.996935 
L 145.380097 73.255932 
L 144.694528 82.428396 
L 144.008958 97.125878 
L 143.323389 107.463082 
L 142.637819 110.178957 
L 141.95225 112.406286 
L 141.266681 112.807116 
L 140.581111 112.551739 
L 139.895542 112.094282 
L 139.209972 111.150499 
L 138.524403 111.802264 
L 137.838833 111.12163 
L 137.153264 110.094572 
L 135.782125 110.424341 
L 135.096556 110.707476 
L 134.410986 110.466533 
L 133.725417 109.387289 
L 133.039847 109.95578 
L 131.668708 108.425741 
L 130.297569 105.765382 
L 129.612 102.908494 
L 128.926431 107.09223 
L 128.240861 107.105554 
L 127.555292 105.06032 
L 126.869722 106.513747 
L 126.184153 107.586329 
L 125.498583 109.004224 
L 124.127444 108.647807 
L 123.441875 106.218398 
L 122.756306 105.283497 
L 122.070736 106.05962 
L 120.699597 104.143185 
L 120.014028 104.819378 
L 119.328458 105.265732 
L 118.642889 103.888919 
L 117.957319 103.921118 
L 117.27175 102.618697 
L 116.586181 113.229043 
L 115.900611 113.612108 
L 115.215042 112.878177 
L 114.529472 122.903377 
L 113.843903 127.125975 
L 113.158333 127.491274 
L 112.472764 126.779551 
L 111.787194 126.362065 
L 111.101625 126.694055 
L 110.416056 128.621594 
L 109.730486 128.835888 
L 108.359347 128.993555 
L 107.673778 128.180791 
L 106.988208 126.989404 
L 106.302639 125.170678 
L 105.617069 129.205629 
L 104.9315 130.669048 
L 104.245931 131.316373 
L 103.560361 130.294866 
L 102.874792 131.762727 
L 102.189222 131.720534 
L 101.503653 131.80825 
L 100.818083 131.718313 
L 100.132514 131.00659 
L 99.446944 130.729006 
L 98.761375 132.551063 
L 97.390236 132.454464 
L 96.704667 132.682083 
L 93.962389 132.37341 
L 93.276819 132.182433 
L 92.59125 131.682783 
L 91.905681 132.197977 
L 91.220111 132.065848 
L 90.534542 132.246832 
L 89.848972 132.121364 
L 89.163403 132.128026 
L 88.477833 132.411161 
L 86.421125 131.867098 
L 85.735556 131.668348 
L 85.049986 131.620604 
L 84.364417 131.185353 
L 83.678847 130.27599 
L 82.993278 128.676 
L 82.307708 132.444471 
L 81.622139 132.966328 
L 80.936569 132.735379 
L 80.251 132.276811 
L 79.565431 132.302349 
L 78.879861 130.736779 
L 78.194292 133.252794 
L 77.508722 133.297207 
L 76.823153 133.097347 
L 76.137583 132.366748 
L 75.452014 133.117333 
L 74.766444 133.294987 
L 74.080875 133.085134 
L 73.395306 133.166188 
L 72.709736 132.848633 
L 72.024167 132.679862 
L 71.338597 132.753144 
L 70.653028 132.382293 
L 69.967458 132.544401 
L 69.281889 131.975911 
L 68.596319 131.065437 
L 67.91075 129.887374 
L 67.225181 131.411861 
L 66.539611 132.588815 
L 65.854042 130.745661 
L 65.168472 129.94178 
L 64.482903 134.489705 
L 63.797333 136.317314 
L 62.426194 136.078592 
L 61.740625 136.225156 
L 61.055056 136.142992 
L 60.369486 136.346183 
L 59.683917 136.160757 
L 58.998347 136.30399 
L 58.312778 135.842091 
L 57.627208 136.600449 
L 55.5705 136.448333 
L 54.199361 136.284004 
L 53.513792 136.128557 
L 52.828222 135.789906 
L 52.142653 135.813223 
L 51.457083 135.665548 
L 50.771514 136.341741 
L 48.714806 136.326197 
L 47.343667 136.0042 
L 45.286958 135.191436 
L 44.601389 134.409761 
L 43.915819 134.162157 
L 43.23025 133.004079 
L 42.544681 131.155374 
L 41.173542 133.000748 
L 40.487972 138.171571 
L 39.802403 141.46593 
L 39.116833 141.602501 
L 36.374556 141.564749 
L 35.003417 141.469261 
L 30.89 141.925608 
L 30.89 141.925608 
" style="fill:none;stroke:#355c7d;stroke-linecap:square;stroke-width:1.5;"/>
   </g>
   <g id="line2d_30">
    <path clip-path="url(#pb567b0a0bd)" d="M 277.009431 141.970021 
L 272.896014 141.912284 
L 272.210444 141.608793 
L 271.524875 141.682815 
L 268.782597 141.517005 
L 268.097028 140.969241 
L 267.411458 139.049474 
L 266.725889 137.576802 
L 266.040319 137.705231 
L 265.35475 137.493157 
L 263.983611 138.639391 
L 262.612472 139.10129 
L 261.926903 139.109432 
L 261.241333 139.254886 
L 259.184625 139.271911 
L 258.499056 139.216024 
L 257.127917 139.446233 
L 256.442347 139.344083 
L 255.756778 139.429208 
L 255.071208 139.258587 
L 253.0145 139.33631 
L 250.957792 139.409962 
L 250.272222 139.460298 
L 249.586653 139.203811 
L 248.215514 139.386275 
L 246.844375 139.248594 
L 246.158806 138.832219 
L 245.473236 138.660117 
L 244.787667 138.906241 
L 244.102097 138.856276 
L 243.416528 139.019865 
L 242.730958 138.339601 
L 242.045389 138.07053 
L 241.359819 134.852044 
L 240.67425 135.296918 
L 239.988681 129.80706 
L 239.303111 129.758945 
L 238.617542 129.331467 
L 237.931972 131.329697 
L 236.560833 133.227626 
L 235.875264 133.775391 
L 234.504125 134.468979 
L 233.132986 134.916814 
L 232.447417 135.081883 
L 231.761847 134.991576 
L 231.076278 135.167379 
L 230.390708 135.042651 
L 229.705139 135.075591 
L 229.019569 134.191766 
L 227.648431 134.582973 
L 226.962861 134.866108 
L 226.277292 134.359426 
L 225.591722 134.699188 
L 224.906153 132.796447 
L 224.220583 132.227216 
L 223.535014 133.376041 
L 222.849444 133.762437 
L 220.792736 134.37127 
L 220.107167 134.097388 
L 218.736028 132.158746 
L 218.050458 126.823594 
L 217.364889 122.64837 
L 216.679319 127.055283 
L 215.99375 128.786663 
L 215.308181 128.14156 
L 214.622611 129.604979 
L 213.937042 130.217143 
L 213.251472 130.576521 
L 212.565903 129.626445 
L 211.880333 129.334058 
L 211.194764 130.032457 
L 210.509194 129.743771 
L 209.138056 130.316332 
L 208.452486 129.379581 
L 207.766917 129.836668 
L 207.081347 129.148262 
L 206.395778 129.319993 
L 205.710208 129.767088 
L 205.024639 129.498757 
L 204.339069 129.820013 
L 202.967931 130.098337 
L 202.282361 129.780041 
L 200.911222 127.181861 
L 200.225653 128.54202 
L 199.540083 128.722634 
L 198.168944 128.815532 
L 197.483375 129.264477 
L 196.112236 128.792585 
L 194.741097 128.773709 
L 194.055528 128.982822 
L 193.369958 128.422104 
L 192.684389 126.630396 
L 191.998819 125.382011 
L 191.31325 125.282081 
L 190.627681 123.153202 
L 189.942111 122.260494 
L 189.256542 119.807027 
L 188.570972 120.367376 
L 187.885403 120.120882 
L 187.199833 120.11496 
L 186.514264 120.673458 
L 185.828694 120.84963 
L 185.143125 120.702326 
L 184.457556 120.760064 
L 183.771986 121.256383 
L 183.086417 120.740078 
L 182.400847 120.895894 
L 181.029708 121.502506 
L 180.344139 120.699365 
L 179.658569 121.102416 
L 178.973 121.890753 
L 178.287431 121.322632 
L 176.916292 122.74682 
L 176.230722 123.162085 
L 175.545153 123.231295 
L 174.859583 123.626944 
L 174.174014 123.58068 
L 173.488444 123.942279 
L 172.802875 124.172488 
L 172.117306 124.163975 
L 171.431736 124.310169 
L 170.060597 124.185812 
L 169.375028 124.518912 
L 168.689458 124.282411 
L 168.003889 124.492634 
L 166.63275 124.717292 
L 165.947181 124.843129 
L 165.261611 124.64586 
L 164.576042 124.319792 
L 163.890472 119.376218 
L 163.204903 112.68794 
L 162.519333 112.208646 
L 161.833764 114.81941 
L 161.148194 116.88463 
L 160.462625 117.999035 
L 159.777056 117.781779 
L 159.091486 117.036746 
L 158.405917 117.891332 
L 157.720347 118.537176 
L 157.034778 118.101185 
L 156.349208 118.147079 
L 155.663639 118.655612 
L 154.978069 118.805877 
L 154.2925 115.607377 
L 153.606931 114.780548 
L 152.921361 118.805877 
L 152.235792 118.655612 
L 151.550222 118.147079 
L 150.864653 118.101185 
L 150.179083 118.537176 
L 149.493514 117.891332 
L 148.807944 117.037116 
L 148.122375 117.781409 
L 147.436806 117.999035 
L 146.751236 116.88463 
L 146.065667 114.81941 
L 145.380097 112.209387 
L 144.694528 112.6872 
L 144.008958 119.376588 
L 143.323389 124.319422 
L 142.637819 124.64586 
L 141.95225 124.843129 
L 139.209972 124.282781 
L 138.524403 124.518542 
L 137.838833 124.185812 
L 135.096556 124.172488 
L 134.410986 123.942279 
L 133.725417 123.58068 
L 133.039847 123.626944 
L 132.354278 123.231295 
L 131.668708 123.162085 
L 130.983139 122.74682 
L 129.612 121.322632 
L 128.926431 121.890753 
L 128.240861 121.102416 
L 127.555292 120.699365 
L 126.869722 121.502506 
L 124.813014 120.740078 
L 124.127444 121.256753 
L 123.441875 120.759693 
L 122.756306 120.702326 
L 122.070736 120.850001 
L 121.385167 120.673087 
L 120.699597 120.11496 
L 120.014028 120.120882 
L 119.328458 120.367376 
L 118.642889 119.807398 
L 117.957319 122.260864 
L 117.27175 123.152462 
L 116.586181 125.282451 
L 115.900611 125.382011 
L 115.215042 126.630396 
L 114.529472 128.421734 
L 113.843903 128.982822 
L 113.158333 128.77445 
L 111.787194 128.792955 
L 110.416056 129.264477 
L 109.730486 128.815532 
L 108.359347 128.722634 
L 107.673778 128.54202 
L 106.988208 127.182602 
L 105.617069 129.780041 
L 104.9315 130.098337 
L 103.560361 129.820013 
L 102.874792 129.498757 
L 102.189222 129.767088 
L 101.503653 129.319993 
L 100.818083 129.148262 
L 100.132514 129.836668 
L 99.446944 129.380321 
L 98.761375 130.315592 
L 97.390236 129.743771 
L 96.704667 130.032827 
L 96.019097 129.333687 
L 95.333528 129.626445 
L 94.647958 130.576521 
L 93.962389 130.217143 
L 93.276819 129.604979 
L 92.59125 128.14193 
L 91.905681 128.786293 
L 91.220111 127.055283 
L 90.534542 122.649481 
L 89.848972 126.822484 
L 89.163403 132.158746 
L 87.792264 134.097017 
L 87.106694 134.37127 
L 85.735556 133.967849 
L 85.049986 133.762437 
L 84.364417 133.376041 
L 83.678847 132.227216 
L 82.993278 132.796447 
L 82.307708 134.699188 
L 81.622139 134.359426 
L 80.936569 134.866108 
L 79.565431 134.355355 
L 78.879861 134.191766 
L 78.194292 135.075591 
L 77.508722 135.043021 
L 76.823153 135.167009 
L 76.137583 134.991576 
L 75.452014 135.081883 
L 74.080875 134.713252 
L 72.709736 134.17363 
L 72.024167 133.775391 
L 71.338597 133.227626 
L 69.967458 131.329697 
L 69.281889 129.332207 
L 68.596319 129.758205 
L 67.91075 129.80743 
L 67.225181 135.296548 
L 66.539611 134.852414 
L 65.854042 138.07016 
L 65.168472 138.339601 
L 64.482903 139.019865 
L 63.797333 138.856276 
L 63.111764 138.906241 
L 62.426194 138.660117 
L 61.740625 138.832219 
L 61.055056 139.248594 
L 59.683917 139.386275 
L 58.312778 139.203811 
L 57.627208 139.460298 
L 54.884931 139.33631 
L 53.513792 139.320766 
L 52.828222 139.258587 
L 52.142653 139.429208 
L 51.457083 139.344083 
L 50.771514 139.446233 
L 48.714806 139.271911 
L 46.658097 139.254886 
L 45.972528 139.109432 
L 45.286958 139.10129 
L 43.915819 138.639391 
L 42.544681 137.493157 
L 41.859111 137.705601 
L 41.173542 137.577912 
L 40.487972 139.047994 
L 39.802403 140.969611 
L 39.116833 141.516635 
L 38.431264 141.622487 
L 37.060125 141.629519 
L 36.374556 141.682815 
L 35.688986 141.608793 
L 35.003417 141.912284 
L 30.89 141.970021 
L 30.89 141.970021 
" style="fill:none;stroke:#f67280;stroke-dasharray:1.5,1.5;stroke-dashoffset:0;stroke-width:1.5;"/>
   </g>
   <g id="patch_3">
    <path d="M 30.89 142 
L 30.89 8.76 
" style="fill:none;stroke:#000000;stroke-linecap:square;stroke-linejoin:miter;stroke-width:0.8;"/>
   </g>
   <g id="patch_4">
    <path d="M 277.695 142 
L 277.695 8.76 
" style="fill:none;stroke:#000000;stroke-linecap:square;stroke-linejoin:miter;stroke-width:0.8;"/>
   </g>
   <g id="patch_5">
    <path d="M 30.89 142 
L 277.695 142 
" style="fill:none;stroke:#000000;stroke-linecap:square;stroke-linejoin:miter;stroke-width:0.8;"/>
   </g>
   <g id="patch_6">
    <path d="M 30.89 8.76 
L 277.695 8.76 
" style="fill:none;stroke:#000000;stroke-linecap:square;stroke-linejoin:miter;stroke-width:0.8;"/>
   </g>
   <g id="legend_1">
    <g id="patch_7">
     <path d="M 35.09 31.17375 
L 135.39875 31.17375 
Q 136.59875 31.17375 136.59875 29.97375 
L 136.59875 12.96 
Q 136.59875 11.76 135.39875 11.76 
L 35.09 11.76 
Q 33.89 11.76 33.89 12.96 
L 33.89 29.97375 
Q 33.89 31.17375 35.09 31.17375 
z
" style="fill:#ffffff;opacity:0.8;stroke:#cccccc;stroke-linejoin:miter;"/>
    </g>
    <g id="line2d_31">
     <path d="M 36.29 16.619062 
L 48.29 16.619062 
" style="fill:none;stroke:#355c7d;stroke-linecap:square;stroke-width:1.5;"/>
    </g>
    <g id="line2d_32"/>
    <g id="text_17">
     <!-- In orbit with perigee &lt; 600 -->
     <g transform="translate(53.09 18.719062)scale(0.06 -0.06)">
      <defs>
       <path d="M 9.8125 72.90625 
L 19.671875 72.90625 
L 19.671875 0 
L 9.8125 0 
z
" id="DejaVuSans-73"/>
       <path d="M 41.109375 46.296875 
Q 39.59375 47.171875 37.8125 47.578125 
Q 36.03125 48 33.890625 48 
Q 26.265625 48 22.1875 43.046875 
Q 18.109375 38.09375 18.109375 28.8125 
L 18.109375 0 
L 9.078125 0 
L 9.078125 54.6875 
L 18.109375 54.6875 
L 18.109375 46.1875 
Q 20.953125 51.171875 25.484375 53.578125 
Q 30.03125 56 36.53125 56 
Q 37.453125 56 38.578125 55.875 
Q 39.703125 55.765625 41.0625 55.515625 
z
" id="DejaVuSans-114"/>
       <path d="M 48.6875 27.296875 
Q 48.6875 37.203125 44.609375 42.84375 
Q 40.53125 48.484375 33.40625 48.484375 
Q 26.265625 48.484375 22.1875 42.84375 
Q 18.109375 37.203125 18.109375 27.296875 
Q 18.109375 17.390625 22.1875 11.75 
Q 26.265625 6.109375 33.40625 6.109375 
Q 40.53125 6.109375 44.609375 11.75 
Q 48.6875 17.390625 48.6875 27.296875 
z
M 18.109375 46.390625 
Q 20.953125 51.265625 25.265625 53.625 
Q 29.59375 56 35.59375 56 
Q 45.5625 56 51.78125 48.09375 
Q 58.015625 40.1875 58.015625 27.296875 
Q 58.015625 14.40625 51.78125 6.484375 
Q 45.5625 -1.421875 35.59375 -1.421875 
Q 29.59375 -1.421875 25.265625 0.953125 
Q 20.953125 3.328125 18.109375 8.203125 
L 18.109375 0 
L 9.078125 0 
L 9.078125 75.984375 
L 18.109375 75.984375 
z
" id="DejaVuSans-98"/>
       <path d="M 4.203125 54.6875 
L 13.1875 54.6875 
L 24.421875 12.015625 
L 35.59375 54.6875 
L 46.1875 54.6875 
L 57.421875 12.015625 
L 68.609375 54.6875 
L 77.59375 54.6875 
L 63.28125 0 
L 52.6875 0 
L 40.921875 44.828125 
L 29.109375 0 
L 18.5 0 
z
" id="DejaVuSans-119"/>
       <path d="M 18.109375 8.203125 
L 18.109375 -20.796875 
L 9.078125 -20.796875 
L 9.078125 54.6875 
L 18.109375 54.6875 
L 18.109375 46.390625 
Q 20.953125 51.265625 25.265625 53.625 
Q 29.59375 56 35.59375 56 
Q 45.5625 56 51.78125 48.09375 
Q 58.015625 40.1875 58.015625 27.296875 
Q 58.015625 14.40625 51.78125 6.484375 
Q 45.5625 -1.421875 35.59375 -1.421875 
Q 29.59375 -1.421875 25.265625 0.953125 
Q 20.953125 3.328125 18.109375 8.203125 
z
M 48.6875 27.296875 
Q 48.6875 37.203125 44.609375 42.84375 
Q 40.53125 48.484375 33.40625 48.484375 
Q 26.265625 48.484375 22.1875 42.84375 
Q 18.109375 37.203125 18.109375 27.296875 
Q 18.109375 17.390625 22.1875 11.75 
Q 26.265625 6.109375 33.40625 6.109375 
Q 40.53125 6.109375 44.609375 11.75 
Q 48.6875 17.390625 48.6875 27.296875 
z
" id="DejaVuSans-112"/>
       <path d="M 73.1875 49.21875 
L 22.796875 31.296875 
L 73.1875 13.484375 
L 73.1875 4.59375 
L 10.59375 27.296875 
L 10.59375 35.40625 
L 73.1875 58.109375 
z
" id="DejaVuSans-60"/>
      </defs>
      <use xlink:href="#DejaVuSans-73"/>
      <use x="29.492188" xlink:href="#DejaVuSans-110"/>
      <use x="92.871094" xlink:href="#DejaVuSans-32"/>
      <use x="124.658203" xlink:href="#DejaVuSans-111"/>
      <use x="185.839844" xlink:href="#DejaVuSans-114"/>
      <use x="226.953125" xlink:href="#DejaVuSans-98"/>
      <use x="290.429688" xlink:href="#DejaVuSans-105"/>
      <use x="318.212891" xlink:href="#DejaVuSans-116"/>
      <use x="357.421875" xlink:href="#DejaVuSans-32"/>
      <use x="389.208984" xlink:href="#DejaVuSans-119"/>
      <use x="470.996094" xlink:href="#DejaVuSans-105"/>
      <use x="498.779297" xlink:href="#DejaVuSans-116"/>
      <use x="537.988281" xlink:href="#DejaVuSans-104"/>
      <use x="601.367188" xlink:href="#DejaVuSans-32"/>
      <use x="633.154297" xlink:href="#DejaVuSans-112"/>
      <use x="696.630859" xlink:href="#DejaVuSans-101"/>
      <use x="758.154297" xlink:href="#DejaVuSans-114"/>
      <use x="799.267578" xlink:href="#DejaVuSans-105"/>
      <use x="827.050781" xlink:href="#DejaVuSans-103"/>
      <use x="890.527344" xlink:href="#DejaVuSans-101"/>
      <use x="952.050781" xlink:href="#DejaVuSans-101"/>
      <use x="1013.574219" xlink:href="#DejaVuSans-32"/>
      <use x="1045.361328" xlink:href="#DejaVuSans-60"/>
      <use x="1129.150391" xlink:href="#DejaVuSans-32"/>
      <use x="1160.9375" xlink:href="#DejaVuSans-54"/>
      <use x="1224.560547" xlink:href="#DejaVuSans-48"/>
      <use x="1288.183594" xlink:href="#DejaVuSans-48"/>
     </g>
    </g>
    <g id="line2d_33">
     <path d="M 36.29 25.425937 
L 48.29 25.425937 
" style="fill:none;stroke:#f67280;stroke-dasharray:1.5,1.5;stroke-dashoffset:0;stroke-width:1.5;"/>
    </g>
    <g id="line2d_34"/>
    <g id="text_18">
     <!-- 10 year projection -->
     <g transform="translate(53.09 27.525937)scale(0.06 -0.06)">
      <defs>
       <path d="M 32.171875 -5.078125 
Q 28.375 -14.84375 24.75 -17.8125 
Q 21.140625 -20.796875 15.09375 -20.796875 
L 7.90625 -20.796875 
L 7.90625 -13.28125 
L 13.1875 -13.28125 
Q 16.890625 -13.28125 18.9375 -11.515625 
Q 21 -9.765625 23.484375 -3.21875 
L 25.09375 0.875 
L 2.984375 54.6875 
L 12.5 54.6875 
L 29.59375 11.921875 
L 46.6875 54.6875 
L 56.203125 54.6875 
z
" id="DejaVuSans-121"/>
       <path d="M 9.421875 54.6875 
L 18.40625 54.6875 
L 18.40625 -0.984375 
Q 18.40625 -11.421875 14.421875 -16.109375 
Q 10.453125 -20.796875 1.609375 -20.796875 
L -1.8125 -20.796875 
L -1.8125 -13.1875 
L 0.59375 -13.1875 
Q 5.71875 -13.1875 7.5625 -10.8125 
Q 9.421875 -8.453125 9.421875 -0.984375 
z
M 9.421875 75.984375 
L 18.40625 75.984375 
L 18.40625 64.59375 
L 9.421875 64.59375 
z
" id="DejaVuSans-106"/>
      </defs>
      <use xlink:href="#DejaVuSans-49"/>
      <use x="63.623047" xlink:href="#DejaVuSans-48"/>
      <use x="127.246094" xlink:href="#DejaVuSans-32"/>
      <use x="159.033203" xlink:href="#DejaVuSans-121"/>
      <use x="218.212891" xlink:href="#DejaVuSans-101"/>
      <use x="279.736328" xlink:href="#DejaVuSans-97"/>
      <use x="341.015625" xlink:href="#DejaVuSans-114"/>
      <use x="382.128906" xlink:href="#DejaVuSans-32"/>
      <use x="413.916016" xlink:href="#DejaVuSans-112"/>
      <use x="477.392578" xlink:href="#DejaVuSans-114"/>
      <use x="516.255859" xlink:href="#DejaVuSans-111"/>
      <use x="577.4375" xlink:href="#DejaVuSans-106"/>
      <use x="605.220703" xlink:href="#DejaVuSans-101"/>
      <use x="666.744141" xlink:href="#DejaVuSans-99"/>
      <use x="721.724609" xlink:href="#DejaVuSans-116"/>
      <use x="760.933594" xlink:href="#DejaVuSans-105"/>
      <use x="788.716797" xlink:href="#DejaVuSans-111"/>
      <use x="849.898438" xlink:href="#DejaVuSans-110"/>
     </g>
    </g>
   </g>
  </g>
 </g>
 <defs>
  <clipPath id="pb567b0a0bd">
   <rect height="133.24" width="246.805" x="30.89" y="8.76"/>
  </clipPath>
 </defs>
</svg>
