<?xml version="1.0" encoding="utf-8" standalone="no"?>
<!DOCTYPE svg PUBLIC "-//W3C//DTD SVG 1.1//EN"
  "http://www.w3.org/Graphics/SVG/1.1/DTD/svg11.dtd">
<!-- Created with matplotlib (https://matplotlib.org/) -->
<svg height="171pt" version="1.1" viewBox="0 0 171 171" width="171pt" xmlns="http://www.w3.org/2000/svg" xmlns:xlink="http://www.w3.org/1999/xlink">
 <metadata>
  <rdf:RDF xmlns:cc="http://creativecommons.org/ns#" xmlns:dc="http://purl.org/dc/elements/1.1/" xmlns:rdf="http://www.w3.org/1999/02/22-rdf-syntax-ns#">
   <cc:Work>
    <dc:type rdf:resource="http://purl.org/dc/dcmitype/StillImage"/>
    <dc:date>2022-05-05T14:00:54.542695</dc:date>
    <dc:format>image/svg+xml</dc:format>
    <dc:creator>
     <cc:Agent>
      <dc:title>Matplotlib v3.3.4, https://matplotlib.org/</dc:title>
     </cc:Agent>
    </dc:creator>
   </cc:Work>
  </rdf:RDF>
 </metadata>
 <defs>
  <style type="text/css">*{stroke-linecap:butt;stroke-linejoin:round;}</style>
 </defs>
 <g id="figure_1">
  <g id="patch_1">
   <path d="M 0 171 
L 171 171 
L 171 0 
L 0 0 
z
" style="fill:#ffffff;"/>
  </g>
  <g id="axes_1">
   <g id="patch_2">
    <path d="M 34.115 142 
L 160.695 142 
L 160.695 8.76 
L 34.115 8.76 
z
" style="fill:#ffffff;"/>
   </g>
   <g id="matplotlib.axis_1">
    <g id="xtick_1">
     <g id="line2d_1">
      <path clip-path="url(#pe00298d528)" d="M 34.115 142 
L 34.115 8.76 
" style="fill:none;stroke:#b0b0b0;stroke-linecap:square;stroke-opacity:0.25;stroke-width:0.8;"/>
     </g>
     <g id="line2d_2">
      <defs>
       <path d="M 0 0 
L 0 3.5 
" id="m2d2d55e31f" style="stroke:#000000;stroke-width:0.8;"/>
      </defs>
      <g>
       <use style="stroke:#000000;stroke-width:0.8;" x="34.115" xlink:href="#m2d2d55e31f" y="142"/>
      </g>
     </g>
     <g id="text_1">
      <!-- −90 -->
      <g transform="translate(27.783594 153.559062)scale(0.06 -0.06)">
       <defs>
        <path d="M 10.59375 35.5 
L 73.1875 35.5 
L 73.1875 27.203125 
L 10.59375 27.203125 
z
" id="DejaVuSans-8722"/>
        <path d="M 10.984375 1.515625 
L 10.984375 10.5 
Q 14.703125 8.734375 18.5 7.8125 
Q 22.3125 6.890625 25.984375 6.890625 
Q 35.75 6.890625 40.890625 13.453125 
Q 46.046875 20.015625 46.78125 33.40625 
Q 43.953125 29.203125 39.59375 26.953125 
Q 35.25 24.703125 29.984375 24.703125 
Q 19.046875 24.703125 12.671875 31.3125 
Q 6.296875 37.9375 6.296875 49.421875 
Q 6.296875 60.640625 12.9375 67.421875 
Q 19.578125 74.21875 30.609375 74.21875 
Q 43.265625 74.21875 49.921875 64.515625 
Q 56.59375 54.828125 56.59375 36.375 
Q 56.59375 19.140625 48.40625 8.859375 
Q 40.234375 -1.421875 26.421875 -1.421875 
Q 22.703125 -1.421875 18.890625 -0.6875 
Q 15.09375 0.046875 10.984375 1.515625 
z
M 30.609375 32.421875 
Q 37.25 32.421875 41.125 36.953125 
Q 45.015625 41.5 45.015625 49.421875 
Q 45.015625 57.28125 41.125 61.84375 
Q 37.25 66.40625 30.609375 66.40625 
Q 23.96875 66.40625 20.09375 61.84375 
Q 16.21875 57.28125 16.21875 49.421875 
Q 16.21875 41.5 20.09375 36.953125 
Q 23.96875 32.421875 30.609375 32.421875 
z
" id="DejaVuSans-57"/>
        <path d="M 31.78125 66.40625 
Q 24.171875 66.40625 20.328125 58.90625 
Q 16.5 51.421875 16.5 36.375 
Q 16.5 21.390625 20.328125 13.890625 
Q 24.171875 6.390625 31.78125 6.390625 
Q 39.453125 6.390625 43.28125 13.890625 
Q 47.125 21.390625 47.125 36.375 
Q 47.125 51.421875 43.28125 58.90625 
Q 39.453125 66.40625 31.78125 66.40625 
z
M 31.78125 74.21875 
Q 44.046875 74.21875 50.515625 64.515625 
Q 56.984375 54.828125 56.984375 36.375 
Q 56.984375 17.96875 50.515625 8.265625 
Q 44.046875 -1.421875 31.78125 -1.421875 
Q 19.53125 -1.421875 13.0625 8.265625 
Q 6.59375 17.96875 6.59375 36.375 
Q 6.59375 54.828125 13.0625 64.515625 
Q 19.53125 74.21875 31.78125 74.21875 
z
" id="DejaVuSans-48"/>
       </defs>
       <use xlink:href="#DejaVuSans-8722"/>
       <use x="83.789062" xlink:href="#DejaVuSans-57"/>
       <use x="147.412109" xlink:href="#DejaVuSans-48"/>
      </g>
     </g>
    </g>
    <g id="xtick_2">
     <g id="line2d_3">
      <path clip-path="url(#pe00298d528)" d="M 55.211667 142 
L 55.211667 8.76 
" style="fill:none;stroke:#b0b0b0;stroke-linecap:square;stroke-opacity:0.25;stroke-width:0.8;"/>
     </g>
     <g id="line2d_4">
      <g>
       <use style="stroke:#000000;stroke-width:0.8;" x="55.211667" xlink:href="#m2d2d55e31f" y="142"/>
      </g>
     </g>
     <g id="text_2">
      <!-- −60 -->
      <g transform="translate(48.88026 153.559062)scale(0.06 -0.06)">
       <defs>
        <path d="M 33.015625 40.375 
Q 26.375 40.375 22.484375 35.828125 
Q 18.609375 31.296875 18.609375 23.390625 
Q 18.609375 15.53125 22.484375 10.953125 
Q 26.375 6.390625 33.015625 6.390625 
Q 39.65625 6.390625 43.53125 10.953125 
Q 47.40625 15.53125 47.40625 23.390625 
Q 47.40625 31.296875 43.53125 35.828125 
Q 39.65625 40.375 33.015625 40.375 
z
M 52.59375 71.296875 
L 52.59375 62.3125 
Q 48.875 64.0625 45.09375 64.984375 
Q 41.3125 65.921875 37.59375 65.921875 
Q 27.828125 65.921875 22.671875 59.328125 
Q 17.53125 52.734375 16.796875 39.40625 
Q 19.671875 43.65625 24.015625 45.921875 
Q 28.375 48.1875 33.59375 48.1875 
Q 44.578125 48.1875 50.953125 41.515625 
Q 57.328125 34.859375 57.328125 23.390625 
Q 57.328125 12.15625 50.6875 5.359375 
Q 44.046875 -1.421875 33.015625 -1.421875 
Q 20.359375 -1.421875 13.671875 8.265625 
Q 6.984375 17.96875 6.984375 36.375 
Q 6.984375 53.65625 15.1875 63.9375 
Q 23.390625 74.21875 37.203125 74.21875 
Q 40.921875 74.21875 44.703125 73.484375 
Q 48.484375 72.75 52.59375 71.296875 
z
" id="DejaVuSans-54"/>
       </defs>
       <use xlink:href="#DejaVuSans-8722"/>
       <use x="83.789062" xlink:href="#DejaVuSans-54"/>
       <use x="147.412109" xlink:href="#DejaVuSans-48"/>
      </g>
     </g>
    </g>
    <g id="xtick_3">
     <g id="line2d_5">
      <path clip-path="url(#pe00298d528)" d="M 76.308333 142 
L 76.308333 8.76 
" style="fill:none;stroke:#b0b0b0;stroke-linecap:square;stroke-opacity:0.25;stroke-width:0.8;"/>
     </g>
     <g id="line2d_6">
      <g>
       <use style="stroke:#000000;stroke-width:0.8;" x="76.308333" xlink:href="#m2d2d55e31f" y="142"/>
      </g>
     </g>
     <g id="text_3">
      <!-- −30 -->
      <g transform="translate(69.976927 153.559062)scale(0.06 -0.06)">
       <defs>
        <path d="M 40.578125 39.3125 
Q 47.65625 37.796875 51.625 33 
Q 55.609375 28.21875 55.609375 21.1875 
Q 55.609375 10.40625 48.1875 4.484375 
Q 40.765625 -1.421875 27.09375 -1.421875 
Q 22.515625 -1.421875 17.65625 -0.515625 
Q 12.796875 0.390625 7.625 2.203125 
L 7.625 11.71875 
Q 11.71875 9.328125 16.59375 8.109375 
Q 21.484375 6.890625 26.8125 6.890625 
Q 36.078125 6.890625 40.9375 10.546875 
Q 45.796875 14.203125 45.796875 21.1875 
Q 45.796875 27.640625 41.28125 31.265625 
Q 36.765625 34.90625 28.71875 34.90625 
L 20.21875 34.90625 
L 20.21875 43.015625 
L 29.109375 43.015625 
Q 36.375 43.015625 40.234375 45.921875 
Q 44.09375 48.828125 44.09375 54.296875 
Q 44.09375 59.90625 40.109375 62.90625 
Q 36.140625 65.921875 28.71875 65.921875 
Q 24.65625 65.921875 20.015625 65.03125 
Q 15.375 64.15625 9.8125 62.3125 
L 9.8125 71.09375 
Q 15.4375 72.65625 20.34375 73.4375 
Q 25.25 74.21875 29.59375 74.21875 
Q 40.828125 74.21875 47.359375 69.109375 
Q 53.90625 64.015625 53.90625 55.328125 
Q 53.90625 49.265625 50.4375 45.09375 
Q 46.96875 40.921875 40.578125 39.3125 
z
" id="DejaVuSans-51"/>
       </defs>
       <use xlink:href="#DejaVuSans-8722"/>
       <use x="83.789062" xlink:href="#DejaVuSans-51"/>
       <use x="147.412109" xlink:href="#DejaVuSans-48"/>
      </g>
     </g>
    </g>
    <g id="xtick_4">
     <g id="line2d_7">
      <path clip-path="url(#pe00298d528)" d="M 97.405 142 
L 97.405 8.76 
" style="fill:none;stroke:#b0b0b0;stroke-linecap:square;stroke-opacity:0.25;stroke-width:0.8;"/>
     </g>
     <g id="line2d_8">
      <g>
       <use style="stroke:#000000;stroke-width:0.8;" x="97.405" xlink:href="#m2d2d55e31f" y="142"/>
      </g>
     </g>
     <g id="text_4">
      <!-- 0 -->
      <g transform="translate(95.49625 153.559062)scale(0.06 -0.06)">
       <use xlink:href="#DejaVuSans-48"/>
      </g>
     </g>
    </g>
    <g id="xtick_5">
     <g id="line2d_9">
      <path clip-path="url(#pe00298d528)" d="M 118.501667 142 
L 118.501667 8.76 
" style="fill:none;stroke:#b0b0b0;stroke-linecap:square;stroke-opacity:0.25;stroke-width:0.8;"/>
     </g>
     <g id="line2d_10">
      <g>
       <use style="stroke:#000000;stroke-width:0.8;" x="118.501667" xlink:href="#m2d2d55e31f" y="142"/>
      </g>
     </g>
     <g id="text_5">
      <!-- 30 -->
      <g transform="translate(114.684167 153.559062)scale(0.06 -0.06)">
       <use xlink:href="#DejaVuSans-51"/>
       <use x="63.623047" xlink:href="#DejaVuSans-48"/>
      </g>
     </g>
    </g>
    <g id="xtick_6">
     <g id="line2d_11">
      <path clip-path="url(#pe00298d528)" d="M 139.598333 142 
L 139.598333 8.76 
" style="fill:none;stroke:#b0b0b0;stroke-linecap:square;stroke-opacity:0.25;stroke-width:0.8;"/>
     </g>
     <g id="line2d_12">
      <g>
       <use style="stroke:#000000;stroke-width:0.8;" x="139.598333" xlink:href="#m2d2d55e31f" y="142"/>
      </g>
     </g>
     <g id="text_6">
      <!-- 60 -->
      <g transform="translate(135.780833 153.559062)scale(0.06 -0.06)">
       <use xlink:href="#DejaVuSans-54"/>
       <use x="63.623047" xlink:href="#DejaVuSans-48"/>
      </g>
     </g>
    </g>
    <g id="xtick_7">
     <g id="line2d_13">
      <path clip-path="url(#pe00298d528)" d="M 160.695 142 
L 160.695 8.76 
" style="fill:none;stroke:#b0b0b0;stroke-linecap:square;stroke-opacity:0.25;stroke-width:0.8;"/>
     </g>
     <g id="line2d_14">
      <g>
       <use style="stroke:#000000;stroke-width:0.8;" x="160.695" xlink:href="#m2d2d55e31f" y="142"/>
      </g>
     </g>
     <g id="text_7">
      <!-- 90 -->
      <g transform="translate(156.8775 153.559062)scale(0.06 -0.06)">
       <use xlink:href="#DejaVuSans-57"/>
       <use x="63.623047" xlink:href="#DejaVuSans-48"/>
      </g>
     </g>
    </g>
    <g id="text_8">
     <!-- Latitude (deg) -->
     <g transform="translate(76.108281 163.365938)scale(0.06 -0.06)">
      <defs>
       <path d="M 9.8125 72.90625 
L 19.671875 72.90625 
L 19.671875 8.296875 
L 55.171875 8.296875 
L 55.171875 0 
L 9.8125 0 
z
" id="DejaVuSans-76"/>
       <path d="M 34.28125 27.484375 
Q 23.390625 27.484375 19.1875 25 
Q 14.984375 22.515625 14.984375 16.5 
Q 14.984375 11.71875 18.140625 8.90625 
Q 21.296875 6.109375 26.703125 6.109375 
Q 34.1875 6.109375 38.703125 11.40625 
Q 43.21875 16.703125 43.21875 25.484375 
L 43.21875 27.484375 
z
M 52.203125 31.203125 
L 52.203125 0 
L 43.21875 0 
L 43.21875 8.296875 
Q 40.140625 3.328125 35.546875 0.953125 
Q 30.953125 -1.421875 24.3125 -1.421875 
Q 15.921875 -1.421875 10.953125 3.296875 
Q 6 8.015625 6 15.921875 
Q 6 25.140625 12.171875 29.828125 
Q 18.359375 34.515625 30.609375 34.515625 
L 43.21875 34.515625 
L 43.21875 35.40625 
Q 43.21875 41.609375 39.140625 45 
Q 35.0625 48.390625 27.6875 48.390625 
Q 23 48.390625 18.546875 47.265625 
Q 14.109375 46.140625 10.015625 43.890625 
L 10.015625 52.203125 
Q 14.9375 54.109375 19.578125 55.046875 
Q 24.21875 56 28.609375 56 
Q 40.484375 56 46.34375 49.84375 
Q 52.203125 43.703125 52.203125 31.203125 
z
" id="DejaVuSans-97"/>
       <path d="M 18.3125 70.21875 
L 18.3125 54.6875 
L 36.8125 54.6875 
L 36.8125 47.703125 
L 18.3125 47.703125 
L 18.3125 18.015625 
Q 18.3125 11.328125 20.140625 9.421875 
Q 21.96875 7.515625 27.59375 7.515625 
L 36.8125 7.515625 
L 36.8125 0 
L 27.59375 0 
Q 17.1875 0 13.234375 3.875 
Q 9.28125 7.765625 9.28125 18.015625 
L 9.28125 47.703125 
L 2.6875 47.703125 
L 2.6875 54.6875 
L 9.28125 54.6875 
L 9.28125 70.21875 
z
" id="DejaVuSans-116"/>
       <path d="M 9.421875 54.6875 
L 18.40625 54.6875 
L 18.40625 0 
L 9.421875 0 
z
M 9.421875 75.984375 
L 18.40625 75.984375 
L 18.40625 64.59375 
L 9.421875 64.59375 
z
" id="DejaVuSans-105"/>
       <path d="M 8.5 21.578125 
L 8.5 54.6875 
L 17.484375 54.6875 
L 17.484375 21.921875 
Q 17.484375 14.15625 20.5 10.265625 
Q 23.53125 6.390625 29.59375 6.390625 
Q 36.859375 6.390625 41.078125 11.03125 
Q 45.3125 15.671875 45.3125 23.6875 
L 45.3125 54.6875 
L 54.296875 54.6875 
L 54.296875 0 
L 45.3125 0 
L 45.3125 8.40625 
Q 42.046875 3.421875 37.71875 1 
Q 33.40625 -1.421875 27.6875 -1.421875 
Q 18.265625 -1.421875 13.375 4.4375 
Q 8.5 10.296875 8.5 21.578125 
z
M 31.109375 56 
z
" id="DejaVuSans-117"/>
       <path d="M 45.40625 46.390625 
L 45.40625 75.984375 
L 54.390625 75.984375 
L 54.390625 0 
L 45.40625 0 
L 45.40625 8.203125 
Q 42.578125 3.328125 38.25 0.953125 
Q 33.9375 -1.421875 27.875 -1.421875 
Q 17.96875 -1.421875 11.734375 6.484375 
Q 5.515625 14.40625 5.515625 27.296875 
Q 5.515625 40.1875 11.734375 48.09375 
Q 17.96875 56 27.875 56 
Q 33.9375 56 38.25 53.625 
Q 42.578125 51.265625 45.40625 46.390625 
z
M 14.796875 27.296875 
Q 14.796875 17.390625 18.875 11.75 
Q 22.953125 6.109375 30.078125 6.109375 
Q 37.203125 6.109375 41.296875 11.75 
Q 45.40625 17.390625 45.40625 27.296875 
Q 45.40625 37.203125 41.296875 42.84375 
Q 37.203125 48.484375 30.078125 48.484375 
Q 22.953125 48.484375 18.875 42.84375 
Q 14.796875 37.203125 14.796875 27.296875 
z
" id="DejaVuSans-100"/>
       <path d="M 56.203125 29.59375 
L 56.203125 25.203125 
L 14.890625 25.203125 
Q 15.484375 15.921875 20.484375 11.0625 
Q 25.484375 6.203125 34.421875 6.203125 
Q 39.59375 6.203125 44.453125 7.46875 
Q 49.3125 8.734375 54.109375 11.28125 
L 54.109375 2.78125 
Q 49.265625 0.734375 44.1875 -0.34375 
Q 39.109375 -1.421875 33.890625 -1.421875 
Q 20.796875 -1.421875 13.15625 6.1875 
Q 5.515625 13.8125 5.515625 26.8125 
Q 5.515625 40.234375 12.765625 48.109375 
Q 20.015625 56 32.328125 56 
Q 43.359375 56 49.78125 48.890625 
Q 56.203125 41.796875 56.203125 29.59375 
z
M 47.21875 32.234375 
Q 47.125 39.59375 43.09375 43.984375 
Q 39.0625 48.390625 32.421875 48.390625 
Q 24.90625 48.390625 20.390625 44.140625 
Q 15.875 39.890625 15.1875 32.171875 
z
" id="DejaVuSans-101"/>
       <path id="DejaVuSans-32"/>
       <path d="M 31 75.875 
Q 24.46875 64.65625 21.28125 53.65625 
Q 18.109375 42.671875 18.109375 31.390625 
Q 18.109375 20.125 21.3125 9.0625 
Q 24.515625 -2 31 -13.1875 
L 23.1875 -13.1875 
Q 15.875 -1.703125 12.234375 9.375 
Q 8.59375 20.453125 8.59375 31.390625 
Q 8.59375 42.28125 12.203125 53.3125 
Q 15.828125 64.359375 23.1875 75.875 
z
" id="DejaVuSans-40"/>
       <path d="M 45.40625 27.984375 
Q 45.40625 37.75 41.375 43.109375 
Q 37.359375 48.484375 30.078125 48.484375 
Q 22.859375 48.484375 18.828125 43.109375 
Q 14.796875 37.75 14.796875 27.984375 
Q 14.796875 18.265625 18.828125 12.890625 
Q 22.859375 7.515625 30.078125 7.515625 
Q 37.359375 7.515625 41.375 12.890625 
Q 45.40625 18.265625 45.40625 27.984375 
z
M 54.390625 6.78125 
Q 54.390625 -7.171875 48.1875 -13.984375 
Q 42 -20.796875 29.203125 -20.796875 
Q 24.46875 -20.796875 20.265625 -20.09375 
Q 16.0625 -19.390625 12.109375 -17.921875 
L 12.109375 -9.1875 
Q 16.0625 -11.328125 19.921875 -12.34375 
Q 23.78125 -13.375 27.78125 -13.375 
Q 36.625 -13.375 41.015625 -8.765625 
Q 45.40625 -4.15625 45.40625 5.171875 
L 45.40625 9.625 
Q 42.625 4.78125 38.28125 2.390625 
Q 33.9375 0 27.875 0 
Q 17.828125 0 11.671875 7.65625 
Q 5.515625 15.328125 5.515625 27.984375 
Q 5.515625 40.671875 11.671875 48.328125 
Q 17.828125 56 27.875 56 
Q 33.9375 56 38.28125 53.609375 
Q 42.625 51.21875 45.40625 46.390625 
L 45.40625 54.6875 
L 54.390625 54.6875 
z
" id="DejaVuSans-103"/>
       <path d="M 8.015625 75.875 
L 15.828125 75.875 
Q 23.140625 64.359375 26.78125 53.3125 
Q 30.421875 42.28125 30.421875 31.390625 
Q 30.421875 20.453125 26.78125 9.375 
Q 23.140625 -1.703125 15.828125 -13.1875 
L 8.015625 -13.1875 
Q 14.5 -2 17.703125 9.0625 
Q 20.90625 20.125 20.90625 31.390625 
Q 20.90625 42.671875 17.703125 53.65625 
Q 14.5 64.65625 8.015625 75.875 
z
" id="DejaVuSans-41"/>
      </defs>
      <use xlink:href="#DejaVuSans-76"/>
      <use x="55.712891" xlink:href="#DejaVuSans-97"/>
      <use x="116.992188" xlink:href="#DejaVuSans-116"/>
      <use x="156.201172" xlink:href="#DejaVuSans-105"/>
      <use x="183.984375" xlink:href="#DejaVuSans-116"/>
      <use x="223.193359" xlink:href="#DejaVuSans-117"/>
      <use x="286.572266" xlink:href="#DejaVuSans-100"/>
      <use x="350.048828" xlink:href="#DejaVuSans-101"/>
      <use x="411.572266" xlink:href="#DejaVuSans-32"/>
      <use x="443.359375" xlink:href="#DejaVuSans-40"/>
      <use x="482.373047" xlink:href="#DejaVuSans-100"/>
      <use x="545.849609" xlink:href="#DejaVuSans-101"/>
      <use x="607.373047" xlink:href="#DejaVuSans-103"/>
      <use x="670.849609" xlink:href="#DejaVuSans-41"/>
     </g>
    </g>
   </g>
   <g id="matplotlib.axis_2">
    <g id="ytick_1">
     <g id="line2d_15">
      <path clip-path="url(#pe00298d528)" d="M 34.115 142 
L 160.695 142 
" style="fill:none;stroke:#b0b0b0;stroke-linecap:square;stroke-opacity:0.25;stroke-width:0.8;"/>
     </g>
     <g id="line2d_16">
      <defs>
       <path d="M 0 0 
L -3.5 0 
" id="m8a4978a315" style="stroke:#000000;stroke-width:0.8;"/>
      </defs>
      <g>
       <use style="stroke:#000000;stroke-width:0.8;" x="34.115" xlink:href="#m8a4978a315" y="142"/>
      </g>
     </g>
     <g id="text_9">
      <!-- 0.0 -->
      <g transform="translate(17.573125 144.279531)scale(0.06 -0.06)">
       <defs>
        <path d="M 10.6875 12.40625 
L 21 12.40625 
L 21 0 
L 10.6875 0 
z
" id="DejaVuSans-46"/>
       </defs>
       <use xlink:href="#DejaVuSans-48"/>
       <use x="63.623047" xlink:href="#DejaVuSans-46"/>
       <use x="95.410156" xlink:href="#DejaVuSans-48"/>
      </g>
     </g>
    </g>
    <g id="ytick_2">
     <g id="line2d_17">
      <path clip-path="url(#pe00298d528)" d="M 34.115 119.793333 
L 160.695 119.793333 
" style="fill:none;stroke:#b0b0b0;stroke-linecap:square;stroke-opacity:0.25;stroke-width:0.8;"/>
     </g>
     <g id="line2d_18">
      <g>
       <use style="stroke:#000000;stroke-width:0.8;" x="34.115" xlink:href="#m8a4978a315" y="119.793333"/>
      </g>
     </g>
     <g id="text_10">
      <!-- 0.5 -->
      <g transform="translate(17.573125 122.072865)scale(0.06 -0.06)">
       <defs>
        <path d="M 10.796875 72.90625 
L 49.515625 72.90625 
L 49.515625 64.59375 
L 19.828125 64.59375 
L 19.828125 46.734375 
Q 21.96875 47.46875 24.109375 47.828125 
Q 26.265625 48.1875 28.421875 48.1875 
Q 40.625 48.1875 47.75 41.5 
Q 54.890625 34.8125 54.890625 23.390625 
Q 54.890625 11.625 47.5625 5.09375 
Q 40.234375 -1.421875 26.90625 -1.421875 
Q 22.3125 -1.421875 17.546875 -0.640625 
Q 12.796875 0.140625 7.71875 1.703125 
L 7.71875 11.625 
Q 12.109375 9.234375 16.796875 8.0625 
Q 21.484375 6.890625 26.703125 6.890625 
Q 35.15625 6.890625 40.078125 11.328125 
Q 45.015625 15.765625 45.015625 23.390625 
Q 45.015625 31 40.078125 35.4375 
Q 35.15625 39.890625 26.703125 39.890625 
Q 22.75 39.890625 18.8125 39.015625 
Q 14.890625 38.140625 10.796875 36.28125 
z
" id="DejaVuSans-53"/>
       </defs>
       <use xlink:href="#DejaVuSans-48"/>
       <use x="63.623047" xlink:href="#DejaVuSans-46"/>
       <use x="95.410156" xlink:href="#DejaVuSans-53"/>
      </g>
     </g>
    </g>
    <g id="ytick_3">
     <g id="line2d_19">
      <path clip-path="url(#pe00298d528)" d="M 34.115 97.586667 
L 160.695 97.586667 
" style="fill:none;stroke:#b0b0b0;stroke-linecap:square;stroke-opacity:0.25;stroke-width:0.8;"/>
     </g>
     <g id="line2d_20">
      <g>
       <use style="stroke:#000000;stroke-width:0.8;" x="34.115" xlink:href="#m8a4978a315" y="97.586667"/>
      </g>
     </g>
     <g id="text_11">
      <!-- 1.0 -->
      <g transform="translate(17.573125 99.866198)scale(0.06 -0.06)">
       <defs>
        <path d="M 12.40625 8.296875 
L 28.515625 8.296875 
L 28.515625 63.921875 
L 10.984375 60.40625 
L 10.984375 69.390625 
L 28.421875 72.90625 
L 38.28125 72.90625 
L 38.28125 8.296875 
L 54.390625 8.296875 
L 54.390625 0 
L 12.40625 0 
z
" id="DejaVuSans-49"/>
       </defs>
       <use xlink:href="#DejaVuSans-49"/>
       <use x="63.623047" xlink:href="#DejaVuSans-46"/>
       <use x="95.410156" xlink:href="#DejaVuSans-48"/>
      </g>
     </g>
    </g>
    <g id="ytick_4">
     <g id="line2d_21">
      <path clip-path="url(#pe00298d528)" d="M 34.115 75.38 
L 160.695 75.38 
" style="fill:none;stroke:#b0b0b0;stroke-linecap:square;stroke-opacity:0.25;stroke-width:0.8;"/>
     </g>
     <g id="line2d_22">
      <g>
       <use style="stroke:#000000;stroke-width:0.8;" x="34.115" xlink:href="#m8a4978a315" y="75.38"/>
      </g>
     </g>
     <g id="text_12">
      <!-- 1.5 -->
      <g transform="translate(17.573125 77.659531)scale(0.06 -0.06)">
       <use xlink:href="#DejaVuSans-49"/>
       <use x="63.623047" xlink:href="#DejaVuSans-46"/>
       <use x="95.410156" xlink:href="#DejaVuSans-53"/>
      </g>
     </g>
    </g>
    <g id="ytick_5">
     <g id="line2d_23">
      <path clip-path="url(#pe00298d528)" d="M 34.115 53.173333 
L 160.695 53.173333 
" style="fill:none;stroke:#b0b0b0;stroke-linecap:square;stroke-opacity:0.25;stroke-width:0.8;"/>
     </g>
     <g id="line2d_24">
      <g>
       <use style="stroke:#000000;stroke-width:0.8;" x="34.115" xlink:href="#m8a4978a315" y="53.173333"/>
      </g>
     </g>
     <g id="text_13">
      <!-- 2.0 -->
      <g transform="translate(17.573125 55.452865)scale(0.06 -0.06)">
       <defs>
        <path d="M 19.1875 8.296875 
L 53.609375 8.296875 
L 53.609375 0 
L 7.328125 0 
L 7.328125 8.296875 
Q 12.9375 14.109375 22.625 23.890625 
Q 32.328125 33.6875 34.8125 36.53125 
Q 39.546875 41.84375 41.421875 45.53125 
Q 43.3125 49.21875 43.3125 52.78125 
Q 43.3125 58.59375 39.234375 62.25 
Q 35.15625 65.921875 28.609375 65.921875 
Q 23.96875 65.921875 18.8125 64.3125 
Q 13.671875 62.703125 7.8125 59.421875 
L 7.8125 69.390625 
Q 13.765625 71.78125 18.9375 73 
Q 24.125 74.21875 28.421875 74.21875 
Q 39.75 74.21875 46.484375 68.546875 
Q 53.21875 62.890625 53.21875 53.421875 
Q 53.21875 48.921875 51.53125 44.890625 
Q 49.859375 40.875 45.40625 35.40625 
Q 44.1875 33.984375 37.640625 27.21875 
Q 31.109375 20.453125 19.1875 8.296875 
z
" id="DejaVuSans-50"/>
       </defs>
       <use xlink:href="#DejaVuSans-50"/>
       <use x="63.623047" xlink:href="#DejaVuSans-46"/>
       <use x="95.410156" xlink:href="#DejaVuSans-48"/>
      </g>
     </g>
    </g>
    <g id="ytick_6">
     <g id="line2d_25">
      <path clip-path="url(#pe00298d528)" d="M 34.115 30.966667 
L 160.695 30.966667 
" style="fill:none;stroke:#b0b0b0;stroke-linecap:square;stroke-opacity:0.25;stroke-width:0.8;"/>
     </g>
     <g id="line2d_26">
      <g>
       <use style="stroke:#000000;stroke-width:0.8;" x="34.115" xlink:href="#m8a4978a315" y="30.966667"/>
      </g>
     </g>
     <g id="text_14">
      <!-- 2.5 -->
      <g transform="translate(17.573125 33.246198)scale(0.06 -0.06)">
       <use xlink:href="#DejaVuSans-50"/>
       <use x="63.623047" xlink:href="#DejaVuSans-46"/>
       <use x="95.410156" xlink:href="#DejaVuSans-53"/>
      </g>
     </g>
    </g>
    <g id="ytick_7">
     <g id="line2d_27">
      <path clip-path="url(#pe00298d528)" d="M 34.115 8.76 
L 160.695 8.76 
" style="fill:none;stroke:#b0b0b0;stroke-linecap:square;stroke-opacity:0.25;stroke-width:0.8;"/>
     </g>
     <g id="line2d_28">
      <g>
       <use style="stroke:#000000;stroke-width:0.8;" x="34.115" xlink:href="#m8a4978a315" y="8.76"/>
      </g>
     </g>
     <g id="text_15">
      <!-- 3.0 -->
      <g transform="translate(17.573125 11.039531)scale(0.06 -0.06)">
       <use xlink:href="#DejaVuSans-51"/>
       <use x="63.623047" xlink:href="#DejaVuSans-46"/>
       <use x="95.410156" xlink:href="#DejaVuSans-48"/>
      </g>
     </g>
    </g>
    <g id="text_16">
     <!-- Number per m$^2$,   x10$^-$$^4$ -->
     <g transform="translate(12.313125 112.25)rotate(-90)scale(0.06 -0.06)">
      <defs>
       <path d="M 9.8125 72.90625 
L 23.09375 72.90625 
L 55.421875 11.921875 
L 55.421875 72.90625 
L 64.984375 72.90625 
L 64.984375 0 
L 51.703125 0 
L 19.390625 60.984375 
L 19.390625 0 
L 9.8125 0 
z
" id="DejaVuSans-78"/>
       <path d="M 52 44.1875 
Q 55.375 50.25 60.0625 53.125 
Q 64.75 56 71.09375 56 
Q 79.640625 56 84.28125 50.015625 
Q 88.921875 44.046875 88.921875 33.015625 
L 88.921875 0 
L 79.890625 0 
L 79.890625 32.71875 
Q 79.890625 40.578125 77.09375 44.375 
Q 74.3125 48.1875 68.609375 48.1875 
Q 61.625 48.1875 57.5625 43.546875 
Q 53.515625 38.921875 53.515625 30.90625 
L 53.515625 0 
L 44.484375 0 
L 44.484375 32.71875 
Q 44.484375 40.625 41.703125 44.40625 
Q 38.921875 48.1875 33.109375 48.1875 
Q 26.21875 48.1875 22.15625 43.53125 
Q 18.109375 38.875 18.109375 30.90625 
L 18.109375 0 
L 9.078125 0 
L 9.078125 54.6875 
L 18.109375 54.6875 
L 18.109375 46.1875 
Q 21.1875 51.21875 25.484375 53.609375 
Q 29.78125 56 35.6875 56 
Q 41.65625 56 45.828125 52.96875 
Q 50 49.953125 52 44.1875 
z
" id="DejaVuSans-109"/>
       <path d="M 48.6875 27.296875 
Q 48.6875 37.203125 44.609375 42.84375 
Q 40.53125 48.484375 33.40625 48.484375 
Q 26.265625 48.484375 22.1875 42.84375 
Q 18.109375 37.203125 18.109375 27.296875 
Q 18.109375 17.390625 22.1875 11.75 
Q 26.265625 6.109375 33.40625 6.109375 
Q 40.53125 6.109375 44.609375 11.75 
Q 48.6875 17.390625 48.6875 27.296875 
z
M 18.109375 46.390625 
Q 20.953125 51.265625 25.265625 53.625 
Q 29.59375 56 35.59375 56 
Q 45.5625 56 51.78125 48.09375 
Q 58.015625 40.1875 58.015625 27.296875 
Q 58.015625 14.40625 51.78125 6.484375 
Q 45.5625 -1.421875 35.59375 -1.421875 
Q 29.59375 -1.421875 25.265625 0.953125 
Q 20.953125 3.328125 18.109375 8.203125 
L 18.109375 0 
L 9.078125 0 
L 9.078125 75.984375 
L 18.109375 75.984375 
z
" id="DejaVuSans-98"/>
       <path d="M 41.109375 46.296875 
Q 39.59375 47.171875 37.8125 47.578125 
Q 36.03125 48 33.890625 48 
Q 26.265625 48 22.1875 43.046875 
Q 18.109375 38.09375 18.109375 28.8125 
L 18.109375 0 
L 9.078125 0 
L 9.078125 54.6875 
L 18.109375 54.6875 
L 18.109375 46.1875 
Q 20.953125 51.171875 25.484375 53.578125 
Q 30.03125 56 36.53125 56 
Q 37.453125 56 38.578125 55.875 
Q 39.703125 55.765625 41.0625 55.515625 
z
" id="DejaVuSans-114"/>
       <path d="M 18.109375 8.203125 
L 18.109375 -20.796875 
L 9.078125 -20.796875 
L 9.078125 54.6875 
L 18.109375 54.6875 
L 18.109375 46.390625 
Q 20.953125 51.265625 25.265625 53.625 
Q 29.59375 56 35.59375 56 
Q 45.5625 56 51.78125 48.09375 
Q 58.015625 40.1875 58.015625 27.296875 
Q 58.015625 14.40625 51.78125 6.484375 
Q 45.5625 -1.421875 35.59375 -1.421875 
Q 29.59375 -1.421875 25.265625 0.953125 
Q 20.953125 3.328125 18.109375 8.203125 
z
M 48.6875 27.296875 
Q 48.6875 37.203125 44.609375 42.84375 
Q 40.53125 48.484375 33.40625 48.484375 
Q 26.265625 48.484375 22.1875 42.84375 
Q 18.109375 37.203125 18.109375 27.296875 
Q 18.109375 17.390625 22.1875 11.75 
Q 26.265625 6.109375 33.40625 6.109375 
Q 40.53125 6.109375 44.609375 11.75 
Q 48.6875 17.390625 48.6875 27.296875 
z
" id="DejaVuSans-112"/>
       <path d="M 11.71875 12.40625 
L 22.015625 12.40625 
L 22.015625 4 
L 14.015625 -11.625 
L 7.71875 -11.625 
L 11.71875 4 
z
" id="DejaVuSans-44"/>
       <path d="M 54.890625 54.6875 
L 35.109375 28.078125 
L 55.90625 0 
L 45.3125 0 
L 29.390625 21.484375 
L 13.484375 0 
L 2.875 0 
L 24.125 28.609375 
L 4.6875 54.6875 
L 15.28125 54.6875 
L 29.78125 35.203125 
L 44.28125 54.6875 
z
" id="DejaVuSans-120"/>
       <path d="M 37.796875 64.3125 
L 12.890625 25.390625 
L 37.796875 25.390625 
z
M 35.203125 72.90625 
L 47.609375 72.90625 
L 47.609375 25.390625 
L 58.015625 25.390625 
L 58.015625 17.1875 
L 47.609375 17.1875 
L 47.609375 0 
L 37.796875 0 
L 37.796875 17.1875 
L 4.890625 17.1875 
L 4.890625 26.703125 
z
" id="DejaVuSans-52"/>
      </defs>
      <use transform="translate(0 0.765625)" xlink:href="#DejaVuSans-78"/>
      <use transform="translate(74.804688 0.765625)" xlink:href="#DejaVuSans-117"/>
      <use transform="translate(138.183594 0.765625)" xlink:href="#DejaVuSans-109"/>
      <use transform="translate(235.595703 0.765625)" xlink:href="#DejaVuSans-98"/>
      <use transform="translate(299.072266 0.765625)" xlink:href="#DejaVuSans-101"/>
      <use transform="translate(360.595703 0.765625)" xlink:href="#DejaVuSans-114"/>
      <use transform="translate(401.708984 0.765625)" xlink:href="#DejaVuSans-32"/>
      <use transform="translate(433.496094 0.765625)" xlink:href="#DejaVuSans-112"/>
      <use transform="translate(496.972656 0.765625)" xlink:href="#DejaVuSans-101"/>
      <use transform="translate(558.496094 0.765625)" xlink:href="#DejaVuSans-114"/>
      <use transform="translate(599.609375 0.765625)" xlink:href="#DejaVuSans-32"/>
      <use transform="translate(631.396484 0.765625)" xlink:href="#DejaVuSans-109"/>
      <use transform="translate(729.765625 39.046875)scale(0.7)" xlink:href="#DejaVuSans-50"/>
      <use transform="translate(777.036133 0.765625)" xlink:href="#DejaVuSans-44"/>
      <use transform="translate(808.823242 0.765625)" xlink:href="#DejaVuSans-32"/>
      <use transform="translate(840.610352 0.765625)" xlink:href="#DejaVuSans-32"/>
      <use transform="translate(872.397461 0.765625)" xlink:href="#DejaVuSans-32"/>
      <use transform="translate(904.18457 0.765625)" xlink:href="#DejaVuSans-120"/>
      <use transform="translate(963.364258 0.765625)" xlink:href="#DejaVuSans-49"/>
      <use transform="translate(1026.987305 0.765625)" xlink:href="#DejaVuSans-48"/>
      <use transform="translate(1105.205078 39.046875)scale(0.7)" xlink:href="#DejaVuSans-8722"/>
      <use transform="translate(1181.186523 39.046875)scale(0.7)" xlink:href="#DejaVuSans-52"/>
     </g>
    </g>
   </g>
   <g id="line2d_29">
    <path clip-path="url(#pe00298d528)" d="M 160.343389 142 
L 145.927333 141.889596 
L 144.520889 141.929958 
L 143.114444 141.873249 
L 142.762833 141.514513 
L 142.059611 141.691773 
L 141.708 141.539072 
L 141.004778 141.42734 
L 139.949944 141.26161 
L 139.246722 139.485898 
L 138.895111 140.012968 
L 138.5435 141.178274 
L 138.191889 141.026762 
L 137.840278 140.339066 
L 137.488667 140.538245 
L 136.785444 138.510172 
L 136.433833 133.497401 
L 136.082222 138.679092 
L 135.730611 136.591068 
L 135.379 138.397944 
L 135.027389 135.069959 
L 134.675778 134.636865 
L 134.324167 136.310984 
L 133.620944 127.783961 
L 133.269333 128.808839 
L 132.917722 131.687478 
L 132.2145 135.335782 
L 131.862889 134.772584 
L 131.511278 132.877333 
L 130.808056 134.993635 
L 130.456444 134.453881 
L 130.104833 136.130955 
L 129.753222 136.546228 
L 129.401611 131.83341 
L 129.05 133.733507 
L 128.698389 134.605698 
L 128.346778 133.834896 
L 127.995167 131.301529 
L 127.643556 133.171243 
L 127.291944 134.274682 
L 126.940333 134.168287 
L 126.237111 126.637632 
L 125.8855 124.298839 
L 125.533889 127.324157 
L 125.182278 121.387573 
L 124.830667 127.647949 
L 124.479056 128.636314 
L 124.127444 129.004455 
L 123.775833 124.670668 
L 123.424222 124.820821 
L 123.072611 117.898399 
L 122.721 120.697245 
L 122.369389 113.308366 
L 122.017778 114.439792 
L 121.666167 103.131928 
L 120.962944 112.9104 
L 120.611333 122.388336 
L 119.5565 115.936524 
L 119.204889 100.497731 
L 118.501667 106.218607 
L 118.150056 115.735982 
L 117.798444 117.792378 
L 117.095222 90.692492 
L 116.392 85.98248 
L 116.040389 43.615653 
L 115.688778 36.115258 
L 115.337167 38.432992 
L 114.985556 44.763664 
L 114.633944 43.715968 
L 114.282333 67.977333 
L 113.2275 41.00704 
L 112.524278 101.624247 
L 112.172667 95.495049 
L 111.469444 111.548457 
L 111.117833 106.54183 
L 110.766222 88.475452 
L 110.414611 109.694029 
L 110.063 111.030083 
L 109.711389 116.608266 
L 109.359778 115.076441 
L 109.008167 109.048376 
L 108.656556 117.544031 
L 108.304944 118.518858 
L 107.953333 117.135765 
L 107.601722 102.61937 
L 107.250111 109.722707 
L 106.8985 101.209074 
L 106.546889 102.635189 
L 105.843667 110.180226 
L 105.492056 109.14727 
L 105.140444 110.32843 
L 104.788833 98.425738 
L 104.085611 114.48461 
L 103.734 115.606533 
L 103.382389 117.828147 
L 103.030778 119.315686 
L 102.679167 115.180552 
L 102.327556 100.525209 
L 101.975944 75.793787 
L 101.624333 75.75799 
L 101.272722 95.46978 
L 100.217889 115.126038 
L 99.866278 111.24887 
L 99.514667 110.262179 
L 99.163056 119.530421 
L 98.811444 116.077649 
L 98.459833 117.165249 
L 98.108222 101.207976 
L 97.756611 99.633515 
L 97.405 79.727593 
L 96.701778 108.068988 
L 96.350167 98.227543 
L 95.998556 107.511519 
L 95.646944 110.168024 
L 95.295333 104.934944 
L 94.943722 102.960607 
L 94.592111 109.066812 
L 94.2405 108.933588 
L 93.888889 121.635153 
L 93.537278 114.424308 
L 93.185667 121.151322 
L 92.834056 73.925421 
L 92.482444 84.889827 
L 91.779222 118.59912 
L 91.427611 126.46333 
L 91.076 127.421765 
L 90.724389 135.256632 
L 90.372778 137.093109 
L 90.021167 138.336872 
L 89.669556 137.002504 
L 89.317944 138.032322 
L 88.966333 134.281153 
L 88.614722 134.107107 
L 88.263111 135.420133 
L 87.9115 137.425813 
L 87.559889 136.414193 
L 87.208278 136.677801 
L 86.856667 136.353573 
L 86.153444 132.880801 
L 85.801833 133.982757 
L 85.450222 135.567084 
L 85.098611 136.581716 
L 84.747 132.524975 
L 84.395389 137.72995 
L 84.043778 135.191042 
L 83.692167 137.05864 
L 83.340556 133.96139 
L 82.988944 134.736687 
L 82.637333 137.284543 
L 82.285722 137.018659 
L 81.934111 137.667576 
L 81.5825 136.050876 
L 81.230889 125.119174 
L 80.879278 130.519698 
L 80.527667 125.033016 
L 80.176056 138.469255 
L 79.824444 137.411754 
L 79.472833 132.970649 
L 79.121222 131.800034 
L 78.769611 131.223566 
L 78.418 136.13562 
L 78.066389 138.264447 
L 77.714778 137.90688 
L 77.363167 139.692219 
L 77.011556 140.261481 
L 76.659944 140.456837 
L 76.308333 139.182529 
L 75.956722 140.617981 
L 75.605111 141.154106 
L 75.2535 140.643921 
L 74.901889 140.529701 
L 74.550278 141.146552 
L 74.198667 140.730123 
L 73.847056 139.609463 
L 73.495444 137.582638 
L 73.143833 139.638301 
L 72.792222 135.009982 
L 72.440611 141.255481 
L 72.089 141.773507 
L 71.737389 141.782782 
L 71.385778 141.135974 
L 71.034167 141.684028 
L 70.682556 140.659433 
L 70.330944 141.473176 
L 69.979333 141.596825 
L 69.627722 141.862713 
L 68.572889 141.896303 
L 68.221278 141.730152 
L 67.869667 141.91545 
L 66.814833 141.915148 
L 64.705167 141.964168 
L 62.947111 141.996059 
L 48.531056 142 
L 34.115 142 
L 34.115 142 
" style="fill:none;stroke:#355c7d;stroke-linecap:square;stroke-width:1.5;"/>
   </g>
   <g id="line2d_30">
    <path clip-path="url(#pe00298d528)" d="M 160.343389 142 
L 146.278944 141.9073 
L 145.575722 141.765193 
L 145.224111 141.901654 
L 143.114444 141.812609 
L 142.762833 141.552959 
L 142.059611 141.636353 
L 141.708 141.516644 
L 141.356389 141.560912 
L 140.653167 141.282916 
L 139.949944 141.147552 
L 139.598333 139.848628 
L 139.246722 139.004882 
L 138.895111 139.589139 
L 138.5435 140.967161 
L 138.191889 140.787847 
L 137.840278 139.881462 
L 137.488667 140.172349 
L 136.785444 137.647508 
L 136.433833 131.152081 
L 136.082222 137.78458 
L 135.730611 136.667851 
L 135.379 137.875823 
L 135.027389 134.086284 
L 134.675778 133.175534 
L 134.324167 135.007601 
L 133.972556 130.961791 
L 133.269333 129.507187 
L 132.2145 134.838025 
L 131.862889 134.080412 
L 131.511278 131.759017 
L 130.808056 133.887025 
L 130.456444 133.512632 
L 130.104833 135.403344 
L 129.753222 135.791243 
L 129.401611 130.636873 
L 128.698389 134.042292 
L 128.346778 132.765546 
L 127.995167 129.660356 
L 127.643556 131.719659 
L 127.291944 132.934853 
L 126.940333 132.7317 
L 126.237111 124.130548 
L 125.8855 121.248346 
L 125.533889 124.752565 
L 125.182278 121.696191 
L 124.830667 127.504443 
L 124.479056 127.568373 
L 124.127444 127.84209 
L 123.775833 123.281776 
L 123.424222 123.367485 
L 123.072611 119.137544 
L 122.721 119.860367 
L 122.369389 113.884729 
L 122.017778 118.078285 
L 121.666167 116.359739 
L 120.962944 118.62735 
L 120.611333 125.257927 
L 119.5565 120.368764 
L 119.204889 111.890983 
L 118.853278 114.626344 
L 118.501667 115.897437 
L 118.150056 121.900499 
L 117.798444 123.929217 
L 117.446833 120.077657 
L 117.095222 122.437888 
L 116.743611 120.902646 
L 116.392 120.379961 
L 116.040389 114.262659 
L 115.688778 111.125312 
L 114.985556 112.609256 
L 114.633944 112.64834 
L 114.282333 120.28929 
L 113.579111 113.92293 
L 113.2275 111.459006 
L 112.875889 121.656241 
L 112.524278 128.558442 
L 112.172667 126.446505 
L 111.821056 128.842574 
L 111.469444 132.17502 
L 111.117833 130.905801 
L 110.766222 125.911585 
L 110.414611 131.720313 
L 110.063 132.149204 
L 109.711389 134.787873 
L 109.359778 133.749844 
L 109.008167 131.538503 
L 108.656556 133.912174 
L 108.304944 134.045414 
L 107.953333 133.384534 
L 107.601722 128.592459 
L 107.250111 130.634756 
L 106.8985 127.526407 
L 106.546889 128.157186 
L 105.843667 130.926475 
L 105.492056 130.186721 
L 105.140444 130.354328 
L 104.788833 126.317343 
L 104.085611 131.625447 
L 103.734 131.961408 
L 103.030778 134.08475 
L 102.679167 133.377492 
L 101.975944 129.660066 
L 101.624333 131.300792 
L 101.272722 134.2893 
L 100.5695 136.145005 
L 100.217889 138.006781 
L 99.866278 137.60717 
L 99.514667 137.478621 
L 99.163056 139.061225 
L 98.811444 138.846276 
L 98.459833 139.043799 
L 98.108222 136.989249 
L 97.756611 136.80752 
L 97.405 136.037894 
L 97.053389 137.494069 
L 96.701778 137.84138 
L 96.350167 136.623143 
L 95.998556 137.894668 
L 95.646944 138.127261 
L 94.943722 136.438437 
L 94.592111 137.29546 
L 94.2405 137.086641 
L 93.888889 138.610209 
L 93.537278 137.435546 
L 93.185667 138.545086 
L 92.834056 131.0048 
L 92.482444 131.355444 
L 92.130833 132.010499 
L 91.427611 136.578782 
L 91.076 136.530359 
L 90.724389 139.435202 
L 90.021167 140.639961 
L 89.669556 140.201304 
L 89.317944 140.541134 
L 88.966333 139.224435 
L 88.614722 139.253213 
L 88.263111 139.701838 
L 87.9115 140.391523 
L 87.559889 140.018022 
L 87.208278 140.125986 
L 86.856667 140.077616 
L 86.153444 138.910736 
L 85.098611 140.339681 
L 84.747 139.308767 
L 84.395389 140.641798 
L 84.043778 139.833405 
L 83.692167 140.514725 
L 83.340556 139.48479 
L 82.988944 139.656542 
L 82.637333 140.413212 
L 82.285722 140.334 
L 81.934111 140.557685 
L 81.5825 140.153937 
L 81.230889 136.895117 
L 80.879278 138.453304 
L 80.527667 136.898222 
L 80.176056 140.964439 
L 79.824444 140.629802 
L 79.472833 139.27078 
L 78.769611 138.857725 
L 78.418 140.346572 
L 78.066389 140.558369 
L 77.714778 140.399061 
L 77.363167 141.120108 
L 76.659944 140.848042 
L 76.308333 139.843827 
L 75.956722 140.991815 
L 75.605111 141.399394 
L 74.901889 140.779734 
L 74.550278 141.280155 
L 74.198667 140.921732 
L 73.847056 139.959248 
L 73.495444 138.450777 
L 73.143833 140.253052 
L 72.792222 137.388257 
L 72.440611 141.353885 
L 72.089 141.778057 
L 71.737389 141.774248 
L 71.385778 141.180396 
L 71.034167 141.657297 
L 70.682556 140.551991 
L 70.330944 141.426055 
L 69.979333 141.564606 
L 69.627722 141.86134 
L 68.572889 141.878432 
L 68.221278 141.686114 
L 67.869667 141.899249 
L 66.814833 141.901197 
L 64.705167 141.959208 
L 62.947111 141.995576 
L 49.234278 142 
L 34.115 142 
L 34.115 142 
" style="fill:none;stroke:#f67280;stroke-dasharray:1.5,1.5;stroke-dashoffset:0;stroke-width:1.5;"/>
   </g>
   <g id="patch_3">
    <path d="M 34.115 142 
L 34.115 8.76 
" style="fill:none;stroke:#000000;stroke-linecap:square;stroke-linejoin:miter;stroke-width:0.8;"/>
   </g>
   <g id="patch_4">
    <path d="M 160.695 142 
L 160.695 8.76 
" style="fill:none;stroke:#000000;stroke-linecap:square;stroke-linejoin:miter;stroke-width:0.8;"/>
   </g>
   <g id="patch_5">
    <path d="M 34.115 142 
L 160.695 142 
" style="fill:none;stroke:#000000;stroke-linecap:square;stroke-linejoin:miter;stroke-width:0.8;"/>
   </g>
   <g id="patch_6">
    <path d="M 34.115 8.76 
L 160.695 8.76 
" style="fill:none;stroke:#000000;stroke-linecap:square;stroke-linejoin:miter;stroke-width:0.8;"/>
   </g>
   <g id="legend_1">
    <g id="patch_7">
     <path d="M 38.315 31.17375 
L 120.92375 31.17375 
Q 122.12375 31.17375 122.12375 29.97375 
L 122.12375 12.96 
Q 122.12375 11.76 120.92375 11.76 
L 38.315 11.76 
Q 37.115 11.76 37.115 12.96 
L 37.115 29.97375 
Q 37.115 31.17375 38.315 31.17375 
z
" style="fill:#ffffff;opacity:0.8;stroke:#cccccc;stroke-linejoin:miter;"/>
    </g>
    <g id="line2d_31">
     <path d="M 39.515 16.619062 
L 51.515 16.619062 
" style="fill:none;stroke:#355c7d;stroke-linecap:square;stroke-width:1.5;"/>
    </g>
    <g id="line2d_32"/>
    <g id="text_17">
     <!-- Casualty expectation -->
     <g transform="translate(56.315 18.719062)scale(0.06 -0.06)">
      <defs>
       <path d="M 64.40625 67.28125 
L 64.40625 56.890625 
Q 59.421875 61.53125 53.78125 63.8125 
Q 48.140625 66.109375 41.796875 66.109375 
Q 29.296875 66.109375 22.65625 58.46875 
Q 16.015625 50.828125 16.015625 36.375 
Q 16.015625 21.96875 22.65625 14.328125 
Q 29.296875 6.6875 41.796875 6.6875 
Q 48.140625 6.6875 53.78125 8.984375 
Q 59.421875 11.28125 64.40625 15.921875 
L 64.40625 5.609375 
Q 59.234375 2.09375 53.4375 0.328125 
Q 47.65625 -1.421875 41.21875 -1.421875 
Q 24.65625 -1.421875 15.125 8.703125 
Q 5.609375 18.84375 5.609375 36.375 
Q 5.609375 53.953125 15.125 64.078125 
Q 24.65625 74.21875 41.21875 74.21875 
Q 47.75 74.21875 53.53125 72.484375 
Q 59.328125 70.75 64.40625 67.28125 
z
" id="DejaVuSans-67"/>
       <path d="M 44.28125 53.078125 
L 44.28125 44.578125 
Q 40.484375 46.53125 36.375 47.5 
Q 32.28125 48.484375 27.875 48.484375 
Q 21.1875 48.484375 17.84375 46.4375 
Q 14.5 44.390625 14.5 40.28125 
Q 14.5 37.15625 16.890625 35.375 
Q 19.28125 33.59375 26.515625 31.984375 
L 29.59375 31.296875 
Q 39.15625 29.25 43.1875 25.515625 
Q 47.21875 21.78125 47.21875 15.09375 
Q 47.21875 7.46875 41.1875 3.015625 
Q 35.15625 -1.421875 24.609375 -1.421875 
Q 20.21875 -1.421875 15.453125 -0.5625 
Q 10.6875 0.296875 5.421875 2 
L 5.421875 11.28125 
Q 10.40625 8.6875 15.234375 7.390625 
Q 20.0625 6.109375 24.8125 6.109375 
Q 31.15625 6.109375 34.5625 8.28125 
Q 37.984375 10.453125 37.984375 14.40625 
Q 37.984375 18.0625 35.515625 20.015625 
Q 33.0625 21.96875 24.703125 23.78125 
L 21.578125 24.515625 
Q 13.234375 26.265625 9.515625 29.90625 
Q 5.8125 33.546875 5.8125 39.890625 
Q 5.8125 47.609375 11.28125 51.796875 
Q 16.75 56 26.8125 56 
Q 31.78125 56 36.171875 55.265625 
Q 40.578125 54.546875 44.28125 53.078125 
z
" id="DejaVuSans-115"/>
       <path d="M 9.421875 75.984375 
L 18.40625 75.984375 
L 18.40625 0 
L 9.421875 0 
z
" id="DejaVuSans-108"/>
       <path d="M 32.171875 -5.078125 
Q 28.375 -14.84375 24.75 -17.8125 
Q 21.140625 -20.796875 15.09375 -20.796875 
L 7.90625 -20.796875 
L 7.90625 -13.28125 
L 13.1875 -13.28125 
Q 16.890625 -13.28125 18.9375 -11.515625 
Q 21 -9.765625 23.484375 -3.21875 
L 25.09375 0.875 
L 2.984375 54.6875 
L 12.5 54.6875 
L 29.59375 11.921875 
L 46.6875 54.6875 
L 56.203125 54.6875 
z
" id="DejaVuSans-121"/>
       <path d="M 48.78125 52.59375 
L 48.78125 44.1875 
Q 44.96875 46.296875 41.140625 47.34375 
Q 37.3125 48.390625 33.40625 48.390625 
Q 24.65625 48.390625 19.8125 42.84375 
Q 14.984375 37.3125 14.984375 27.296875 
Q 14.984375 17.28125 19.8125 11.734375 
Q 24.65625 6.203125 33.40625 6.203125 
Q 37.3125 6.203125 41.140625 7.25 
Q 44.96875 8.296875 48.78125 10.40625 
L 48.78125 2.09375 
Q 45.015625 0.34375 40.984375 -0.53125 
Q 36.96875 -1.421875 32.421875 -1.421875 
Q 20.0625 -1.421875 12.78125 6.34375 
Q 5.515625 14.109375 5.515625 27.296875 
Q 5.515625 40.671875 12.859375 48.328125 
Q 20.21875 56 33.015625 56 
Q 37.15625 56 41.109375 55.140625 
Q 45.0625 54.296875 48.78125 52.59375 
z
" id="DejaVuSans-99"/>
       <path d="M 30.609375 48.390625 
Q 23.390625 48.390625 19.1875 42.75 
Q 14.984375 37.109375 14.984375 27.296875 
Q 14.984375 17.484375 19.15625 11.84375 
Q 23.34375 6.203125 30.609375 6.203125 
Q 37.796875 6.203125 41.984375 11.859375 
Q 46.1875 17.53125 46.1875 27.296875 
Q 46.1875 37.015625 41.984375 42.703125 
Q 37.796875 48.390625 30.609375 48.390625 
z
M 30.609375 56 
Q 42.328125 56 49.015625 48.375 
Q 55.71875 40.765625 55.71875 27.296875 
Q 55.71875 13.875 49.015625 6.21875 
Q 42.328125 -1.421875 30.609375 -1.421875 
Q 18.84375 -1.421875 12.171875 6.21875 
Q 5.515625 13.875 5.515625 27.296875 
Q 5.515625 40.765625 12.171875 48.375 
Q 18.84375 56 30.609375 56 
z
" id="DejaVuSans-111"/>
       <path d="M 54.890625 33.015625 
L 54.890625 0 
L 45.90625 0 
L 45.90625 32.71875 
Q 45.90625 40.484375 42.875 44.328125 
Q 39.84375 48.1875 33.796875 48.1875 
Q 26.515625 48.1875 22.3125 43.546875 
Q 18.109375 38.921875 18.109375 30.90625 
L 18.109375 0 
L 9.078125 0 
L 9.078125 54.6875 
L 18.109375 54.6875 
L 18.109375 46.1875 
Q 21.34375 51.125 25.703125 53.5625 
Q 30.078125 56 35.796875 56 
Q 45.21875 56 50.046875 50.171875 
Q 54.890625 44.34375 54.890625 33.015625 
z
" id="DejaVuSans-110"/>
      </defs>
      <use xlink:href="#DejaVuSans-67"/>
      <use x="69.824219" xlink:href="#DejaVuSans-97"/>
      <use x="131.103516" xlink:href="#DejaVuSans-115"/>
      <use x="183.203125" xlink:href="#DejaVuSans-117"/>
      <use x="246.582031" xlink:href="#DejaVuSans-97"/>
      <use x="307.861328" xlink:href="#DejaVuSans-108"/>
      <use x="335.644531" xlink:href="#DejaVuSans-116"/>
      <use x="374.853516" xlink:href="#DejaVuSans-121"/>
      <use x="434.033203" xlink:href="#DejaVuSans-32"/>
      <use x="465.820312" xlink:href="#DejaVuSans-101"/>
      <use x="525.59375" xlink:href="#DejaVuSans-120"/>
      <use x="584.773438" xlink:href="#DejaVuSans-112"/>
      <use x="648.25" xlink:href="#DejaVuSans-101"/>
      <use x="709.773438" xlink:href="#DejaVuSans-99"/>
      <use x="764.753906" xlink:href="#DejaVuSans-116"/>
      <use x="803.962891" xlink:href="#DejaVuSans-97"/>
      <use x="865.242188" xlink:href="#DejaVuSans-116"/>
      <use x="904.451172" xlink:href="#DejaVuSans-105"/>
      <use x="932.234375" xlink:href="#DejaVuSans-111"/>
      <use x="993.416016" xlink:href="#DejaVuSans-110"/>
     </g>
    </g>
    <g id="line2d_33">
     <path d="M 39.515 25.425937 
L 51.515 25.425937 
" style="fill:none;stroke:#f67280;stroke-dasharray:1.5,1.5;stroke-dashoffset:0;stroke-width:1.5;"/>
    </g>
    <g id="line2d_34"/>
    <g id="text_18">
     <!-- Population density -->
     <g transform="translate(56.315 27.525937)scale(0.06 -0.06)">
      <defs>
       <path d="M 19.671875 64.796875 
L 19.671875 37.40625 
L 32.078125 37.40625 
Q 38.96875 37.40625 42.71875 40.96875 
Q 46.484375 44.53125 46.484375 51.125 
Q 46.484375 57.671875 42.71875 61.234375 
Q 38.96875 64.796875 32.078125 64.796875 
z
M 9.8125 72.90625 
L 32.078125 72.90625 
Q 44.34375 72.90625 50.609375 67.359375 
Q 56.890625 61.8125 56.890625 51.125 
Q 56.890625 40.328125 50.609375 34.8125 
Q 44.34375 29.296875 32.078125 29.296875 
L 19.671875 29.296875 
L 19.671875 0 
L 9.8125 0 
z
" id="DejaVuSans-80"/>
      </defs>
      <use xlink:href="#DejaVuSans-80"/>
      <use x="56.677734" xlink:href="#DejaVuSans-111"/>
      <use x="117.859375" xlink:href="#DejaVuSans-112"/>
      <use x="181.335938" xlink:href="#DejaVuSans-117"/>
      <use x="244.714844" xlink:href="#DejaVuSans-108"/>
      <use x="272.498047" xlink:href="#DejaVuSans-97"/>
      <use x="333.777344" xlink:href="#DejaVuSans-116"/>
      <use x="372.986328" xlink:href="#DejaVuSans-105"/>
      <use x="400.769531" xlink:href="#DejaVuSans-111"/>
      <use x="461.951172" xlink:href="#DejaVuSans-110"/>
      <use x="525.330078" xlink:href="#DejaVuSans-32"/>
      <use x="557.117188" xlink:href="#DejaVuSans-100"/>
      <use x="620.59375" xlink:href="#DejaVuSans-101"/>
      <use x="682.117188" xlink:href="#DejaVuSans-110"/>
      <use x="745.496094" xlink:href="#DejaVuSans-115"/>
      <use x="797.595703" xlink:href="#DejaVuSans-105"/>
      <use x="825.378906" xlink:href="#DejaVuSans-116"/>
      <use x="864.587891" xlink:href="#DejaVuSans-121"/>
     </g>
    </g>
   </g>
  </g>
 </g>
 <defs>
  <clipPath id="pe00298d528">
   <rect height="133.24" width="126.58" x="34.115" y="8.76"/>
  </clipPath>
 </defs>
</svg>
